<ttFont>
    <TTGlyph name=".notdef" xMin="50" yMin="-250" xMax="450" yMax="750">
      <contour>
        <pt x="50" y="-250" on="1"/>
        <pt x="450" y="-250" on="1"/>
        <pt x="450" y="750" on="1"/>
        <pt x="50" y="750" on="1"/>
      </contour>
      <contour>
        <pt x="100" y="-200" on="1"/>
        <pt x="100" y="700" on="1"/>
        <pt x="400" y="700" on="1"/>
        <pt x="400" y="-200" on="1"/>
      </contour>
    </TTGlyph>
    <TTGlyph name="Euro" xMin="33" yMin="-34" xMax="509" yMax="639">
      <contour>
        <pt x="33" y="202" on="1"/>
        <pt x="53" y="278" on="1"/>
        <pt x="121" y="278" on="1"/>
        <pt x="119" y="296" on="0"/>
        <pt x="119" y="313" on="1"/>
        <pt x="119" y="322" on="0"/>
        <pt x="120" y="331" on="1"/>
        <pt x="65" y="331" on="1"/>
        <pt x="85" y="407" on="1"/>
        <pt x="133" y="407" on="1"/>
        <pt x="154" y="474" on="0"/>
        <pt x="255" y="579" on="0"/>
        <pt x="409" y="639" on="0"/>
        <pt x="509" y="639" on="1"/>
        <pt x="509" y="530" on="1"/>
        <pt x="404" y="530" on="0"/>
        <pt x="275" y="460" on="0"/>
        <pt x="246" y="407" on="1"/>
        <pt x="471" y="407" on="1"/>
        <pt x="451" y="331" on="1"/>
        <pt x="224" y="331" on="1"/>
        <pt x="223" y="322" on="0"/>
        <pt x="223" y="313" on="1"/>
        <pt x="223" y="295" on="0"/>
        <pt x="226" y="278" on="1"/>
        <pt x="441" y="278" on="1"/>
        <pt x="421" y="202" on="1"/>
        <pt x="253" y="202" on="1"/>
        <pt x="283" y="150" on="0"/>
        <pt x="409" y="77" on="0"/>
        <pt x="509" y="75" on="1"/>
        <pt x="509" y="-34" on="1"/>
        <pt x="411" y="-34" on="0"/>
        <pt x="261" y="29" on="0"/>
        <pt x="161" y="136" on="0"/>
        <pt x="138" y="202" on="1"/>
      </contour>
    </TTGlyph>
    <TTGlyph name="arrowboth" xMin="13" yMin="44" xMax="816" yMax="511">
      <contour>
        <pt x="248" y="44" on="1"/>
        <pt x="13" y="277" on="1"/>
        <pt x="248" y="511" on="1"/>
        <pt x="325" y="438" on="1"/>
        <pt x="215" y="329" on="1"/>
        <pt x="615" y="329" on="1"/>
        <pt x="505" y="438" on="1"/>
        <pt x="582" y="511" on="1"/>
        <pt x="816" y="278" on="1"/>
        <pt x="580" y="44" on="1"/>
        <pt x="503" y="117" on="1"/>
        <pt x="614" y="225" on="1"/>
        <pt x="214" y="225" on="1"/>
        <pt x="325" y="117" on="1"/>
      </contour>
    </TTGlyph>
    <TTGlyph name="arrowdown" xMin="59" yMin="-55" xMax="579" yMax="556">
      <contour>
        <pt x="320" y="-55" on="1"/>
        <pt x="59" y="206" on="1"/>
        <pt x="133" y="283" on="1"/>
        <pt x="267" y="147" on="1"/>
        <pt x="267" y="556" on="1"/>
        <pt x="371" y="556" on="1"/>
        <pt x="371" y="145" on="1"/>
        <pt x="506" y="282" on="1"/>
        <pt x="579" y="205" on="1"/>
      </contour>
    </TTGlyph>
    <TTGlyph name="arrowleft" xMin="10" yMin="27" xMax="622" yMax="547">
      <contour>
        <pt x="271" y="27" on="1"/>
        <pt x="10" y="286" on="1"/>
        <pt x="272" y="547" on="1"/>
        <pt x="349" y="473" on="1"/>
        <pt x="212" y="338" on="1"/>
        <pt x="622" y="338" on="1"/>
        <pt x="622" y="234" on="1"/>
        <pt x="211" y="234" on="1"/>
        <pt x="348" y="101" on="1"/>
      </contour>
    </TTGlyph>
    <TTGlyph name="arrowright" xMin="24" yMin="27" xMax="636" yMax="547">
      <contour>
        <pt x="24" y="234" on="1"/>
        <pt x="24" y="338" on="1"/>
        <pt x="436" y="338" on="1"/>
        <pt x="298" y="473" on="1"/>
        <pt x="375" y="547" on="1"/>
        <pt x="636" y="287" on="1"/>
        <pt x="374" y="27" on="1"/>
        <pt x="298" y="101" on="1"/>
        <pt x="434" y="234" on="1"/>
      </contour>
    </TTGlyph>
    <TTGlyph name="arrowup" xMin="59" yMin="0" xMax="579" yMax="611">
      <contour>
        <pt x="267" y="0" on="1"/>
        <pt x="267" y="411" on="1"/>
        <pt x="133" y="274" on="1"/>
        <pt x="59" y="351" on="1"/>
        <pt x="319" y="611" on="1"/>
        <pt x="579" y="350" on="1"/>
        <pt x="506" y="273" on="1"/>
        <pt x="371" y="410" on="1"/>
        <pt x="371" y="0" on="1"/>
      </contour>
    </TTGlyph>
    <TTGlyph name="arrowupdn" xMin="85" yMin="-93" xMax="538" yMax="637">
      <contour>
        <pt x="312" y="-93" on="1"/>
        <pt x="85" y="135" on="1"/>
        <pt x="159" y="212" on="1"/>
        <pt x="260" y="109" on="1"/>
        <pt x="260" y="437" on="1"/>
        <pt x="159" y="333" on="1"/>
        <pt x="85" y="410" on="1"/>
        <pt x="311" y="637" on="1"/>
        <pt x="364" y="584" on="1"/>
        <pt x="364" y="584" on="1"/>
        <pt x="364" y="584" on="1"/>
        <pt x="538" y="409" on="1"/>
        <pt x="464" y="332" on="1"/>
        <pt x="364" y="435" on="1"/>
        <pt x="364" y="108" on="1"/>
        <pt x="464" y="211" on="1"/>
        <pt x="538" y="134" on="1"/>
      </contour>
    </TTGlyph>
    <TTGlyph name="asciicircum" xMin="37" yMin="317" xMax="457" yMax="609">
      <contour>
        <pt x="37" y="317" on="1"/>
        <pt x="207" y="609" on="1"/>
        <pt x="282" y="609" on="1"/>
        <pt x="457" y="317" on="1"/>
        <pt x="341" y="317" on="1"/>
        <pt x="246" y="485" on="1"/>
        <pt x="153" y="317" on="1"/>
      </contour>
    </TTGlyph>
    <TTGlyph name="asterisk" xMin="38" yMin="296" xMax="411" yMax="670">
      <contour>
        <pt x="255" y="433" on="1"/>
        <pt x="275" y="296" on="1"/>
        <pt x="175" y="296" on="1"/>
        <pt x="194" y="430" on="1"/>
        <pt x="88" y="346" on="1"/>
        <pt x="38" y="433" on="1"/>
        <pt x="167" y="484" on="1"/>
        <pt x="38" y="536" on="1"/>
        <pt x="88" y="621" on="1"/>
        <pt x="195" y="536" on="1"/>
        <pt x="175" y="670" on="1"/>
        <pt x="275" y="670" on="1"/>
        <pt x="254" y="534" on="1"/>
        <pt x="361" y="619" on="1"/>
        <pt x="411" y="533" on="1"/>
        <pt x="286" y="484" on="1"/>
        <pt x="411" y="434" on="1"/>
        <pt x="361" y="348" on="1"/>
      </contour>
    </TTGlyph>
    <TTGlyph name="backslash" xMin="51" yMin="-185" xMax="435" yMax="730">
      <contour>
        <pt x="324" y="-185" on="1"/>
        <pt x="51" y="730" on="1"/>
        <pt x="162" y="730" on="1"/>
        <pt x="435" y="-185" on="1"/>
      </contour>
    </TTGlyph>
    <TTGlyph name="bar" xMin="103" yMin="12" xMax="114" yMax="488">
      <contour>
        <pt x="103" y="488" on="1"/>
        <pt x="114" y="488" on="1"/>
        <pt x="114" y="12" on="1"/>
        <pt x="103" y="12" on="1"/>
      </contour>
    </TTGlyph>
    <TTGlyph name="braceleft" xMin="29" yMin="-234" xMax="365" yMax="734">
      <contour>
        <pt x="354" y="-234" on="1"/>
        <pt x="269" y="-234" on="0"/>
        <pt x="167" y="-187" on="0"/>
        <pt x="121" y="-83" on="0"/>
        <pt x="120" y="3" on="1"/>
        <pt x="120" y="99" on="1"/>
        <pt x="120" y="150" on="0"/>
        <pt x="83" y="195" on="0"/>
        <pt x="29" y="195" on="1"/>
        <pt x="29" y="303" on="1"/>
        <pt x="87" y="303" on="0"/>
        <pt x="120" y="346" on="0"/>
        <pt x="120" y="395" on="1"/>
        <pt x="120" y="496" on="1"/>
        <pt x="120" y="581" on="0"/>
        <pt x="165" y="686" on="0"/>
        <pt x="268" y="734" on="0"/>
        <pt x="354" y="734" on="1"/>
        <pt x="365" y="734" on="1"/>
        <pt x="365" y="628" on="1"/>
        <pt x="309" y="628" on="0"/>
        <pt x="248" y="603" on="0"/>
        <pt x="225" y="545" on="0"/>
        <pt x="225" y="494" on="1"/>
        <pt x="225" y="397" on="1"/>
        <pt x="225" y="345" on="0"/>
        <pt x="188" y="261" on="0"/>
        <pt x="142" y="249" on="1"/>
        <pt x="189" y="237" on="0"/>
        <pt x="226" y="158" on="0"/>
        <pt x="226" y="102" on="1"/>
        <pt x="225" y="3" on="1"/>
        <pt x="225" y="-48" on="0"/>
        <pt x="248" y="-105" on="0"/>
        <pt x="309" y="-128" on="0"/>
        <pt x="365" y="-128" on="1"/>
        <pt x="365" y="-234" on="1"/>
      </contour>
    </TTGlyph>
    <TTGlyph name="braceright" xMin="33" yMin="-234" xMax="370" yMax="734">
      <contour>
        <pt x="33" y="-234" on="1"/>
        <pt x="33" y="-127" on="1"/>
        <pt x="89" y="-127" on="0"/>
        <pt x="150" y="-105" on="0"/>
        <pt x="173" y="-48" on="0"/>
        <pt x="173" y="3" on="1"/>
        <pt x="173" y="102" on="1"/>
        <pt x="172" y="158" on="0"/>
        <pt x="209" y="237" on="0"/>
        <pt x="257" y="249" on="1"/>
        <pt x="210" y="261" on="0"/>
        <pt x="173" y="345" on="0"/>
        <pt x="173" y="397" on="1"/>
        <pt x="173" y="494" on="1"/>
        <pt x="173" y="545" on="0"/>
        <pt x="150" y="603" on="0"/>
        <pt x="89" y="627" on="0"/>
        <pt x="33" y="627" on="1"/>
        <pt x="33" y="734" on="1"/>
        <pt x="44" y="734" on="1"/>
        <pt x="130" y="734" on="0"/>
        <pt x="233" y="686" on="0"/>
        <pt x="278" y="581" on="0"/>
        <pt x="278" y="496" on="1"/>
        <pt x="278" y="395" on="1"/>
        <pt x="278" y="346" on="0"/>
        <pt x="311" y="303" on="0"/>
        <pt x="370" y="303" on="1"/>
        <pt x="370" y="195" on="1"/>
        <pt x="315" y="195" on="0"/>
        <pt x="278" y="150" on="0"/>
        <pt x="278" y="99" on="1"/>
        <pt x="278" y="3" on="1"/>
        <pt x="277" y="-83" on="0"/>
        <pt x="231" y="-187" on="0"/>
        <pt x="129" y="-234" on="0"/>
        <pt x="44" y="-234" on="1"/>
      </contour>
    </TTGlyph>
    <TTGlyph name="bracketleft" xMin="41" yMin="-234" xMax="265" yMax="734">
      <contour>
        <pt x="41" y="-234" on="1"/>
        <pt x="41" y="734" on="1"/>
        <pt x="265" y="734" on="1"/>
        <pt x="265" y="626" on="1"/>
        <pt x="147" y="626" on="1"/>
        <pt x="147" y="-126" on="1"/>
        <pt x="265" y="-126" on="1"/>
        <pt x="265" y="-234" on="1"/>
      </contour>
    </TTGlyph>
    <TTGlyph name="bracketright" xMin="33" yMin="-234" xMax="258" yMax="734">
      <contour>
        <pt x="33" y="-234" on="1"/>
        <pt x="33" y="-126" on="1"/>
        <pt x="152" y="-126" on="1"/>
        <pt x="152" y="626" on="1"/>
        <pt x="33" y="626" on="1"/>
        <pt x="33" y="734" on="1"/>
        <pt x="258" y="734" on="1"/>
        <pt x="258" y="-234" on="1"/>
      </contour>
    </TTGlyph>
    <TTGlyph name="bullet" xMin="46" yMin="148" xMax="296" yMax="398">
      <contour>
        <pt x="171" y="148" on="1"/>
        <pt x="118" y="148" on="0"/>
        <pt x="46" y="220" on="0"/>
        <pt x="46" y="272" on="1"/>
        <pt x="46" y="308" on="0"/>
        <pt x="79" y="364" on="0"/>
        <pt x="136" y="398" on="0"/>
        <pt x="171" y="398" on="1"/>
        <pt x="206" y="398" on="0"/>
        <pt x="263" y="364" on="0"/>
        <pt x="296" y="308" on="0"/>
        <pt x="296" y="272" on="1"/>
        <pt x="296" y="237" on="0"/>
        <pt x="263" y="181" on="0"/>
        <pt x="206" y="148" on="0"/>
      </contour>
    </TTGlyph>
    <TTGlyph name="colon" xMin="36" yMin="-9" xMax="185" yMax="467">
      <contour>
        <pt x="110" y="318" on="1"/>
        <pt x="77" y="318" on="0"/>
        <pt x="36" y="360" on="0"/>
        <pt x="36" y="392" on="1"/>
        <pt x="36" y="425" on="0"/>
        <pt x="78" y="467" on="0"/>
        <pt x="110" y="467" on="1"/>
        <pt x="143" y="467" on="0"/>
        <pt x="185" y="425" on="0"/>
        <pt x="185" y="392" on="1"/>
        <pt x="185" y="360" on="0"/>
        <pt x="143" y="318" on="0"/>
      </contour>
      <contour>
        <pt x="110" y="-9" on="1"/>
        <pt x="77" y="-9" on="0"/>
        <pt x="36" y="33" on="0"/>
        <pt x="36" y="65" on="1"/>
        <pt x="36" y="98" on="0"/>
        <pt x="78" y="140" on="0"/>
        <pt x="110" y="140" on="1"/>
        <pt x="143" y="140" on="0"/>
        <pt x="185" y="98" on="0"/>
        <pt x="185" y="65" on="1"/>
        <pt x="185" y="33" on="0"/>
        <pt x="143" y="-9" on="0"/>
      </contour>
    </TTGlyph>
    <TTGlyph name="comma" xMin="23" yMin="-116" xMax="182" yMax="118">
      <contour>
        <pt x="23" y="-116" on="1"/>
        <pt x="64" y="118" on="1"/>
        <pt x="182" y="118" on="1"/>
        <pt x="113" y="-116" on="1"/>
      </contour>
    </TTGlyph>
    <TTGlyph name="copyright" xMin="40" yMin="-101" xMax="808" yMax="671">
      <contour>
        <pt x="424" y="-101" on="1"/>
        <pt x="345" y="-101" on="0"/>
        <pt x="206" y="-41" on="0"/>
        <pt x="100" y="65" on="0"/>
        <pt x="40" y="205" on="0"/>
        <pt x="40" y="285" on="1"/>
        <pt x="40" y="365" on="0"/>
        <pt x="100" y="505" on="0"/>
        <pt x="206" y="611" on="0"/>
        <pt x="345" y="671" on="0"/>
        <pt x="424" y="671" on="1"/>
        <pt x="503" y="671" on="0"/>
        <pt x="642" y="611" on="0"/>
        <pt x="748" y="505" on="0"/>
        <pt x="808" y="365" on="0"/>
        <pt x="808" y="285" on="1"/>
        <pt x="808" y="205" on="0"/>
        <pt x="748" y="65" on="0"/>
        <pt x="642" y="-41" on="0"/>
        <pt x="503" y="-101" on="0"/>
      </contour>
      <contour>
        <pt x="424" y="-12" on="1"/>
        <pt x="487" y="-12" on="0"/>
        <pt x="594" y="34" on="0"/>
        <pt x="674" y="116" on="0"/>
        <pt x="719" y="224" on="0"/>
        <pt x="719" y="285" on="1"/>
        <pt x="719" y="346" on="0"/>
        <pt x="674" y="454" on="0"/>
        <pt x="594" y="536" on="0"/>
        <pt x="487" y="582" on="0"/>
        <pt x="424" y="582" on="1"/>
        <pt x="361" y="582" on="0"/>
        <pt x="254" y="536" on="0"/>
        <pt x="174" y="454" on="0"/>
        <pt x="129" y="346" on="0"/>
        <pt x="129" y="285" on="1"/>
        <pt x="129" y="224" on="0"/>
        <pt x="174" y="116" on="0"/>
        <pt x="254" y="34" on="0"/>
        <pt x="361" y="-12" on="0"/>
      </contour>
      <contour>
        <pt x="427" y="79" on="1"/>
        <pt x="369" y="79" on="0"/>
        <pt x="277" y="135" on="0"/>
        <pt x="223" y="228" on="0"/>
        <pt x="223" y="285" on="1"/>
        <pt x="223" y="342" on="0"/>
        <pt x="277" y="435" on="0"/>
        <pt x="370" y="491" on="0"/>
        <pt x="427" y="491" on="1"/>
        <pt x="485" y="491" on="0"/>
        <pt x="580" y="433" on="0"/>
        <pt x="606" y="387" on="1"/>
        <pt x="525" y="338" on="1"/>
        <pt x="513" y="363" on="0"/>
        <pt x="460" y="398" on="0"/>
        <pt x="427" y="398" on="1"/>
        <pt x="395" y="398" on="0"/>
        <pt x="344" y="367" on="0"/>
        <pt x="313" y="316" on="0"/>
        <pt x="313" y="285" on="1"/>
        <pt x="313" y="238" on="0"/>
        <pt x="380" y="172" on="0"/>
        <pt x="427" y="172" on="1"/>
        <pt x="461" y="172" on="0"/>
        <pt x="515" y="209" on="0"/>
        <pt x="527" y="236" on="1"/>
        <pt x="609" y="190" on="1"/>
        <pt x="583" y="141" on="0"/>
        <pt x="487" y="79" on="0"/>
      </contour>
    </TTGlyph>
    <TTGlyph name="degree" xMin="70" yMin="401" xMax="366" yMax="694">
      <contour>
        <pt x="218" y="401" on="1"/>
        <pt x="177" y="401" on="0"/>
        <pt x="110" y="440" on="0"/>
        <pt x="70" y="507" on="0"/>
        <pt x="70" y="548" on="1"/>
        <pt x="70" y="588" on="0"/>
        <pt x="110" y="654" on="0"/>
        <pt x="177" y="694" on="0"/>
        <pt x="218" y="694" on="1"/>
        <pt x="259" y="694" on="0"/>
        <pt x="327" y="654" on="0"/>
        <pt x="366" y="588" on="0"/>
        <pt x="366" y="548" on="1"/>
        <pt x="366" y="507" on="0"/>
        <pt x="327" y="440" on="0"/>
        <pt x="259" y="401" on="0"/>
      </contour>
      <contour>
        <pt x="219" y="486" on="1"/>
        <pt x="243" y="486" on="0"/>
        <pt x="277" y="522" on="0"/>
        <pt x="277" y="547" on="1"/>
        <pt x="277" y="572" on="0"/>
        <pt x="243" y="608" on="0"/>
        <pt x="219" y="608" on="1"/>
        <pt x="194" y="608" on="0"/>
        <pt x="159" y="572" on="0"/>
        <pt x="159" y="547" on="1"/>
        <pt x="159" y="522" on="0"/>
        <pt x="195" y="486" on="0"/>
      </contour>
    </TTGlyph>
    <TTGlyph name="divide" xMin="42" yMin="54" xMax="430" yMax="500">
      <contour>
        <pt x="235" y="368" on="1"/>
        <pt x="206" y="368" on="0"/>
        <pt x="170" y="406" on="0"/>
        <pt x="170" y="434" on="1"/>
        <pt x="170" y="462" on="0"/>
        <pt x="207" y="500" on="0"/>
        <pt x="235" y="500" on="1"/>
        <pt x="264" y="500" on="0"/>
        <pt x="301" y="462" on="0"/>
        <pt x="301" y="434" on="1"/>
        <pt x="301" y="406" on="0"/>
        <pt x="264" y="368" on="0"/>
      </contour>
      <contour>
        <pt x="42" y="241" on="1"/>
        <pt x="42" y="313" on="1"/>
        <pt x="430" y="313" on="1"/>
        <pt x="430" y="241" on="1"/>
      </contour>
      <contour>
        <pt x="235" y="54" on="1"/>
        <pt x="206" y="54" on="0"/>
        <pt x="170" y="91" on="0"/>
        <pt x="170" y="119" on="1"/>
        <pt x="170" y="148" on="0"/>
        <pt x="207" y="185" on="0"/>
        <pt x="235" y="185" on="1"/>
        <pt x="264" y="185" on="0"/>
        <pt x="301" y="148" on="0"/>
        <pt x="301" y="119" on="1"/>
        <pt x="301" y="91" on="0"/>
        <pt x="264" y="54" on="0"/>
      </contour>
    </TTGlyph>
    <TTGlyph name="dollar" xMin="65" yMin="-101" xMax="565" yMax="730">
      <contour>
        <pt x="264" y="-101" on="1"/>
        <pt x="264" y="-11" on="1"/>
        <pt x="201" y="-3" on="0"/>
        <pt x="106" y="46" on="0"/>
        <pt x="65" y="82" on="1"/>
        <pt x="109" y="176" on="1"/>
        <pt x="141" y="146" on="0"/>
        <pt x="217" y="104" on="0"/>
        <pt x="264" y="96" on="1"/>
        <pt x="264" y="275" on="1"/>
        <pt x="212" y="293" on="0"/>
        <pt x="121" y="345" on="0"/>
        <pt x="66" y="417" on="0"/>
        <pt x="66" y="468" on="1"/>
        <pt x="66" y="530" on="0"/>
        <pt x="170" y="626" on="0"/>
        <pt x="264" y="636" on="1"/>
        <pt x="264" y="730" on="1"/>
        <pt x="370" y="730" on="1"/>
        <pt x="370" y="634" on="1"/>
        <pt x="426" y="624" on="0"/>
        <pt x="509" y="573" on="0"/>
        <pt x="546" y="543" on="1"/>
        <pt x="499" y="455" on="1"/>
        <pt x="466" y="477" on="0"/>
        <pt x="406" y="515" on="0"/>
        <pt x="370" y="525" on="1"/>
        <pt x="370" y="355" on="1"/>
        <pt x="422" y="337" on="0"/>
        <pt x="511" y="286" on="0"/>
        <pt x="565" y="211" on="0"/>
        <pt x="565" y="158" on="1"/>
        <pt x="565" y="121" on="0"/>
        <pt x="518" y="50" on="0"/>
        <pt x="431" y="-2" on="0"/>
        <pt x="370" y="-11" on="1"/>
        <pt x="370" y="-101" on="1"/>
      </contour>
      <contour>
        <pt x="170" y="462" on="1"/>
        <pt x="170" y="438" on="0"/>
        <pt x="225" y="405" on="0"/>
        <pt x="264" y="391" on="1"/>
        <pt x="264" y="528" on="1"/>
        <pt x="219" y="520" on="0"/>
        <pt x="170" y="479" on="0"/>
      </contour>
      <contour>
        <pt x="460" y="162" on="1"/>
        <pt x="460" y="187" on="0"/>
        <pt x="413" y="224" on="0"/>
        <pt x="370" y="241" on="1"/>
        <pt x="370" y="96" on="1"/>
        <pt x="414" y="105" on="0"/>
        <pt x="460" y="143" on="0"/>
      </contour>
    </TTGlyph>
    <TTGlyph name="eight" xMin="41" yMin="-18" xMax="513" yMax="620">
      <contour>
        <pt x="277" y="-18" on="1"/>
        <pt x="204" y="-18" on="0"/>
        <pt x="98" y="33" on="0"/>
        <pt x="41" y="122" on="0"/>
        <pt x="41" y="180" on="1"/>
        <pt x="41" y="233" on="0"/>
        <pt x="103" y="320" on="0"/>
        <pt x="150" y="335" on="1"/>
        <pt x="119" y="349" on="0"/>
        <pt x="79" y="420" on="0"/>
        <pt x="79" y="457" on="1"/>
        <pt x="79" y="500" on="0"/>
        <pt x="132" y="574" on="0"/>
        <pt x="221" y="620" on="0"/>
        <pt x="277" y="620" on="1"/>
        <pt x="332" y="620" on="0"/>
        <pt x="422" y="574" on="0"/>
        <pt x="474" y="500" on="0"/>
        <pt x="474" y="457" on="1"/>
        <pt x="474" y="420" on="0"/>
        <pt x="435" y="349" on="0"/>
        <pt x="404" y="335" on="1"/>
        <pt x="451" y="320" on="0"/>
        <pt x="513" y="233" on="0"/>
        <pt x="513" y="180" on="1"/>
        <pt x="513" y="122" on="0"/>
        <pt x="456" y="33" on="0"/>
        <pt x="350" y="-18" on="0"/>
      </contour>
      <contour>
        <pt x="277" y="372" on="1"/>
        <pt x="317" y="372" on="0"/>
        <pt x="365" y="417" on="0"/>
        <pt x="365" y="451" on="1"/>
        <pt x="365" y="478" on="0"/>
        <pt x="314" y="516" on="0"/>
        <pt x="277" y="516" on="1"/>
        <pt x="240" y="516" on="0"/>
        <pt x="188" y="478" on="0"/>
        <pt x="188" y="451" on="1"/>
        <pt x="188" y="417" on="0"/>
        <pt x="237" y="372" on="0"/>
      </contour>
      <contour>
        <pt x="277" y="86" on="1"/>
        <pt x="333" y="86" on="0"/>
        <pt x="404" y="147" on="0"/>
        <pt x="404" y="188" on="1"/>
        <pt x="404" y="219" on="0"/>
        <pt x="364" y="266" on="0"/>
        <pt x="306" y="292" on="0"/>
        <pt x="277" y="292" on="1"/>
        <pt x="248" y="292" on="0"/>
        <pt x="189" y="266" on="0"/>
        <pt x="150" y="219" on="0"/>
        <pt x="150" y="188" on="1"/>
        <pt x="150" y="147" on="0"/>
        <pt x="220" y="86" on="0"/>
      </contour>
    </TTGlyph>
    <TTGlyph name="emdash" xMin="44" yMin="226" xMax="679" yMax="320">
      <contour>
        <pt x="44" y="226" on="1"/>
        <pt x="44" y="320" on="1"/>
        <pt x="679" y="320" on="1"/>
        <pt x="679" y="226" on="1"/>
      </contour>
    </TTGlyph>
    <TTGlyph name="endash" xMin="44" yMin="226" xMax="479" yMax="320">
      <contour>
        <pt x="44" y="226" on="1"/>
        <pt x="44" y="320" on="1"/>
        <pt x="479" y="320" on="1"/>
        <pt x="479" y="226" on="1"/>
      </contour>
    </TTGlyph>
    <TTGlyph name="equal" xMin="42" yMin="145" xMax="445" yMax="418">
      <contour>
        <pt x="42" y="325" on="1"/>
        <pt x="42" y="418" on="1"/>
        <pt x="445" y="418" on="1"/>
        <pt x="445" y="325" on="1"/>
      </contour>
      <contour>
        <pt x="42" y="145" on="1"/>
        <pt x="42" y="238" on="1"/>
        <pt x="445" y="238" on="1"/>
        <pt x="445" y="145" on="1"/>
      </contour>
    </TTGlyph>
    <TTGlyph name="exclam" xMin="63" yMin="6" xMax="180" yMax="599">
      <contour>
        <pt x="85" y="193" on="1"/>
        <pt x="78" y="268" on="0"/>
        <pt x="68" y="424" on="0"/>
        <pt x="68" y="482" on="1"/>
        <pt x="68" y="599" on="1"/>
        <pt x="174" y="599" on="1"/>
        <pt x="174" y="482" on="1"/>
        <pt x="174" y="424" on="0"/>
        <pt x="164" y="268" on="0"/>
        <pt x="157" y="193" on="1"/>
      </contour>
      <contour>
        <pt x="76" y="37" on="1"/>
        <pt x="63" y="57" on="0"/>
        <pt x="73" y="98" on="0"/>
        <pt x="93" y="111" on="1"/>
        <pt x="113" y="124" on="0"/>
        <pt x="155" y="114" on="0"/>
        <pt x="168" y="94" on="1"/>
        <pt x="180" y="75" on="0"/>
        <pt x="170" y="32" on="0"/>
        <pt x="150" y="19" on="1"/>
        <pt x="130" y="6" on="0"/>
        <pt x="88" y="17" on="0"/>
      </contour>
    </TTGlyph>
    <TTGlyph name="five" xMin="48" yMin="-17" xMax="491" yMax="601">
      <contour>
        <pt x="266" y="-17" on="1"/>
        <pt x="203" y="-17" on="0"/>
        <pt x="93" y="16" on="0"/>
        <pt x="48" y="36" on="1"/>
        <pt x="90" y="136" on="1"/>
        <pt x="131" y="122" on="0"/>
        <pt x="223" y="92" on="0"/>
        <pt x="266" y="92" on="1"/>
        <pt x="320" y="92" on="0"/>
        <pt x="387" y="149" on="0"/>
        <pt x="387" y="196" on="1"/>
        <pt x="387" y="245" on="0"/>
        <pt x="318" y="291" on="0"/>
        <pt x="259" y="291" on="1"/>
        <pt x="224" y="291" on="0"/>
        <pt x="141" y="279" on="0"/>
        <pt x="74" y="265" on="1"/>
        <pt x="83" y="601" on="1"/>
        <pt x="444" y="601" on="1"/>
        <pt x="444" y="492" on="1"/>
        <pt x="181" y="492" on="1"/>
        <pt x="177" y="374" on="1"/>
        <pt x="199" y="377" on="0"/>
        <pt x="245" y="381" on="0"/>
        <pt x="259" y="381" on="1"/>
        <pt x="373" y="381" on="0"/>
        <pt x="491" y="282" on="0"/>
        <pt x="491" y="193" on="1"/>
        <pt x="491" y="129" on="0"/>
        <pt x="432" y="34" on="0"/>
        <pt x="331" y="-17" on="0"/>
      </contour>
    </TTGlyph>
    <TTGlyph name="four" xMin="34" yMin="0" xMax="488" yMax="601">
      <contour>
        <pt x="336" y="0" on="1"/>
        <pt x="336" y="121" on="1"/>
        <pt x="34" y="121" on="1"/>
        <pt x="34" y="215" on="1"/>
        <pt x="331" y="601" on="1"/>
        <pt x="440" y="601" on="1"/>
        <pt x="440" y="230" on="1"/>
        <pt x="488" y="231" on="1"/>
        <pt x="488" y="122" on="1"/>
        <pt x="440" y="122" on="1"/>
        <pt x="440" y="0" on="1"/>
      </contour>
      <contour>
        <pt x="336" y="442" on="1"/>
        <pt x="164" y="230" on="1"/>
        <pt x="336" y="230" on="1"/>
      </contour>
    </TTGlyph>
    <TTGlyph name="greater" xMin="42" yMin="70" xMax="502" yMax="528">
      <contour>
        <pt x="64" y="70" on="1"/>
        <pt x="42" y="169" on="1"/>
        <pt x="368" y="301" on="1"/>
        <pt x="43" y="428" on="1"/>
        <pt x="63" y="528" on="1"/>
        <pt x="502" y="344" on="1"/>
        <pt x="502" y="259" on="1"/>
      </contour>
    </TTGlyph>
    <TTGlyph name="hyphen" xMin="52" yMin="226" xMax="414" yMax="320">
      <contour>
        <pt x="52" y="320" on="1"/>
        <pt x="414" y="320" on="1"/>
        <pt x="414" y="226" on="1"/>
        <pt x="52" y="226" on="1"/>
      </contour>
    </TTGlyph>
    <TTGlyph name="less" xMin="42" yMin="70" xMax="502" yMax="528">
      <contour>
        <pt x="481" y="70" on="1"/>
        <pt x="42" y="259" on="1"/>
        <pt x="42" y="344" on="1"/>
        <pt x="482" y="528" on="1"/>
        <pt x="502" y="428" on="1"/>
        <pt x="177" y="301" on="1"/>
        <pt x="502" y="169" on="1"/>
      </contour>
    </TTGlyph>
    <TTGlyph name="minus" xMin="49" yMin="226" xMax="430" yMax="321">
      <contour>
        <pt x="49" y="277" on="1"/>
        <pt x="319" y="321" on="1"/>
        <pt x="430" y="270" on="1"/>
        <pt x="160" y="226" on="1"/>
      </contour>
    </TTGlyph>
    <TTGlyph name="multiply" xMin="55" yMin="81" xMax="428" yMax="459">
      <contour>
        <pt x="123" y="81" on="1"/>
        <pt x="55" y="153" on="1"/>
        <pt x="171" y="269" on="1"/>
        <pt x="55" y="386" on="1"/>
        <pt x="123" y="459" on="1"/>
        <pt x="242" y="339" on="1"/>
        <pt x="360" y="458" on="1"/>
        <pt x="428" y="386" on="1"/>
        <pt x="312" y="269" on="1"/>
        <pt x="428" y="154" on="1"/>
        <pt x="360" y="81" on="1"/>
        <pt x="242" y="199" on="1"/>
      </contour>
    </TTGlyph>
    <TTGlyph name="nine" xMin="39" yMin="-37" xMax="492" yMax="626">
      <contour>
        <pt x="244" y="-37" on="1"/>
        <pt x="168" y="24" on="1"/>
        <pt x="205" y="63" on="0"/>
        <pt x="280" y="145" on="0"/>
        <pt x="311" y="189" on="1"/>
        <pt x="289" y="185" on="0"/>
        <pt x="266" y="185" on="1"/>
        <pt x="202" y="185" on="0"/>
        <pt x="99" y="241" on="0"/>
        <pt x="39" y="338" on="0"/>
        <pt x="39" y="399" on="1"/>
        <pt x="39" y="463" on="0"/>
        <pt x="96" y="566" on="0"/>
        <pt x="196" y="626" on="0"/>
        <pt x="260" y="626" on="1"/>
        <pt x="325" y="626" on="0"/>
        <pt x="430" y="567" on="0"/>
        <pt x="492" y="463" on="0"/>
        <pt x="492" y="395" on="1"/>
        <pt x="492" y="393" on="0"/>
        <pt x="492" y="392" on="1"/>
        <pt x="492" y="392" on="0"/>
        <pt x="492" y="392" on="1"/>
        <pt x="491" y="319" on="0"/>
        <pt x="419" y="168" on="0"/>
        <pt x="306" y="24" on="0"/>
      </contour>
      <contour>
        <pt x="266" y="294" on="1"/>
        <pt x="312" y="294" on="0"/>
        <pt x="373" y="335" on="0"/>
        <pt x="384" y="369" on="1"/>
        <pt x="385" y="382" on="0"/>
        <pt x="385" y="395" on="1"/>
        <pt x="388" y="395" on="1"/>
        <pt x="388" y="396" on="0"/>
        <pt x="388" y="403" on="1"/>
        <pt x="388" y="453" on="0"/>
        <pt x="315" y="517" on="0"/>
        <pt x="260" y="517" on="1"/>
        <pt x="206" y="517" on="0"/>
        <pt x="143" y="451" on="0"/>
        <pt x="143" y="399" on="1"/>
        <pt x="143" y="355" on="0"/>
        <pt x="214" y="294" on="0"/>
      </contour>
    </TTGlyph>
    <TTGlyph name="notequal" xMin="42" yMin="60" xMax="445" yMax="488">
      <contour>
        <pt x="89" y="60" on="1"/>
        <pt x="128" y="145" on="1"/>
        <pt x="42" y="145" on="1"/>
        <pt x="42" y="238" on="1"/>
        <pt x="171" y="238" on="1"/>
        <pt x="211" y="325" on="1"/>
        <pt x="42" y="325" on="1"/>
        <pt x="42" y="418" on="1"/>
        <pt x="255" y="418" on="1"/>
        <pt x="287" y="488" on="1"/>
        <pt x="388" y="488" on="1"/>
        <pt x="356" y="418" on="1"/>
        <pt x="445" y="418" on="1"/>
        <pt x="445" y="325" on="1"/>
        <pt x="313" y="325" on="1"/>
        <pt x="272" y="238" on="1"/>
        <pt x="445" y="238" on="1"/>
        <pt x="445" y="145" on="1"/>
        <pt x="229" y="145" on="1"/>
        <pt x="190" y="60" on="1"/>
      </contour>
    </TTGlyph>
    <TTGlyph name="numbersign" xMin="52" yMin="-56" xMax="667" yMax="637">
      <contour>
        <pt x="52" y="111" on="1"/>
        <pt x="52" y="222" on="1"/>
        <pt x="167" y="222" on="1"/>
        <pt x="186" y="356" on="1"/>
        <pt x="52" y="356" on="1"/>
        <pt x="52" y="467" on="1"/>
        <pt x="202" y="467" on="1"/>
        <pt x="226" y="637" on="1"/>
        <pt x="335" y="637" on="1"/>
        <pt x="310" y="467" on="1"/>
        <pt x="446" y="467" on="1"/>
        <pt x="471" y="637" on="1"/>
        <pt x="579" y="637" on="1"/>
        <pt x="554" y="467" on="1"/>
        <pt x="667" y="467" on="1"/>
        <pt x="667" y="356" on="1"/>
        <pt x="539" y="356" on="1"/>
        <pt x="519" y="222" on="1"/>
        <pt x="667" y="222" on="1"/>
        <pt x="667" y="111" on="1"/>
        <pt x="504" y="111" on="1"/>
        <pt x="480" y="-56" on="1"/>
        <pt x="371" y="-56" on="1"/>
        <pt x="395" y="111" on="1"/>
        <pt x="259" y="111" on="1"/>
        <pt x="235" y="-56" on="1"/>
        <pt x="127" y="-56" on="1"/>
        <pt x="151" y="111" on="1"/>
      </contour>
      <contour>
        <pt x="275" y="222" on="1"/>
        <pt x="411" y="222" on="1"/>
        <pt x="430" y="356" on="1"/>
        <pt x="294" y="356" on="1"/>
      </contour>
    </TTGlyph>
    <TTGlyph name="one" xMin="49" yMin="0" xMax="337" yMax="619">
      <contour>
        <pt x="233" y="0" on="1"/>
        <pt x="233" y="455" on="1"/>
        <pt x="49" y="382" on="1"/>
        <pt x="49" y="505" on="1"/>
        <pt x="337" y="619" on="1"/>
        <pt x="337" y="0" on="1"/>
      </contour>
    </TTGlyph>
    <TTGlyph name="parenleft" xMin="40" yMin="-249" xMax="322" yMax="745">
      <contour>
        <pt x="238" y="-249" on="1"/>
        <pt x="189" y="-195" on="0"/>
        <pt x="98" y="-52" on="0"/>
        <pt x="40" y="133" on="0"/>
        <pt x="40" y="249" on="1"/>
        <pt x="40" y="365" on="0"/>
        <pt x="98" y="547" on="0"/>
        <pt x="188" y="689" on="0"/>
        <pt x="236" y="745" on="1"/>
        <pt x="322" y="681" on="1"/>
        <pt x="277" y="629" on="0"/>
        <pt x="198" y="505" on="0"/>
        <pt x="150" y="349" on="0"/>
        <pt x="150" y="250" on="1"/>
        <pt x="150" y="150" on="0"/>
        <pt x="198" y="-8" on="0"/>
        <pt x="275" y="-130" on="0"/>
        <pt x="319" y="-177" on="1"/>
      </contour>
    </TTGlyph>
    <TTGlyph name="parenright" xMin="41" yMin="-249" xMax="323" yMax="745">
      <contour>
        <pt x="125" y="-249" on="1"/>
        <pt x="44" y="-177" on="1"/>
        <pt x="88" y="-130" on="0"/>
        <pt x="165" y="-8" on="0"/>
        <pt x="213" y="150" on="0"/>
        <pt x="213" y="250" on="1"/>
        <pt x="213" y="349" on="0"/>
        <pt x="165" y="505" on="0"/>
        <pt x="86" y="629" on="0"/>
        <pt x="41" y="681" on="1"/>
        <pt x="127" y="745" on="1"/>
        <pt x="175" y="689" on="0"/>
        <pt x="265" y="547" on="0"/>
        <pt x="323" y="365" on="0"/>
        <pt x="323" y="249" on="1"/>
        <pt x="323" y="133" on="0"/>
        <pt x="265" y="-52" on="0"/>
        <pt x="174" y="-195" on="0"/>
      </contour>
    </TTGlyph>
    <TTGlyph name="percent" xMin="29" yMin="-68" xMax="873" yMax="656">
      <contour>
        <pt x="234" y="-68" on="1"/>
        <pt x="153" y="-7" on="1"/>
        <pt x="664" y="656" on="1"/>
        <pt x="747" y="597" on="1"/>
      </contour>
      <contour>
        <pt x="212" y="262" on="1"/>
        <pt x="161" y="262" on="0"/>
        <pt x="78" y="312" on="0"/>
        <pt x="29" y="396" on="0"/>
        <pt x="29" y="447" on="1"/>
        <pt x="29" y="498" on="0"/>
        <pt x="78" y="582" on="0"/>
        <pt x="161" y="631" on="0"/>
        <pt x="212" y="631" on="1"/>
        <pt x="262" y="631" on="0"/>
        <pt x="345" y="582" on="0"/>
        <pt x="394" y="498" on="0"/>
        <pt x="394" y="447" on="1"/>
        <pt x="394" y="396" on="0"/>
        <pt x="345" y="312" on="0"/>
        <pt x="262" y="262" on="0"/>
      </contour>
      <contour>
        <pt x="212" y="361" on="1"/>
        <pt x="248" y="361" on="0"/>
        <pt x="298" y="411" on="0"/>
        <pt x="298" y="447" on="1"/>
        <pt x="298" y="483" on="0"/>
        <pt x="248" y="532" on="0"/>
        <pt x="212" y="532" on="1"/>
        <pt x="176" y="532" on="0"/>
        <pt x="125" y="483" on="0"/>
        <pt x="125" y="447" on="1"/>
        <pt x="125" y="411" on="0"/>
        <pt x="176" y="361" on="0"/>
      </contour>
      <contour>
        <pt x="690" y="-41" on="1"/>
        <pt x="639" y="-41" on="0"/>
        <pt x="557" y="10" on="0"/>
        <pt x="508" y="94" on="0"/>
        <pt x="508" y="145" on="1"/>
        <pt x="508" y="196" on="0"/>
        <pt x="557" y="279" on="0"/>
        <pt x="639" y="329" on="0"/>
        <pt x="690" y="329" on="1"/>
        <pt x="741" y="329" on="0"/>
        <pt x="824" y="279" on="0"/>
        <pt x="873" y="196" on="0"/>
        <pt x="873" y="145" on="1"/>
        <pt x="873" y="94" on="0"/>
        <pt x="824" y="10" on="0"/>
        <pt x="741" y="-41" on="0"/>
      </contour>
      <contour>
        <pt x="690" y="59" on="1"/>
        <pt x="726" y="59" on="0"/>
        <pt x="777" y="109" on="0"/>
        <pt x="777" y="145" on="1"/>
        <pt x="777" y="180" on="0"/>
        <pt x="726" y="229" on="0"/>
        <pt x="690" y="229" on="1"/>
        <pt x="654" y="229" on="0"/>
        <pt x="604" y="180" on="0"/>
        <pt x="604" y="145" on="1"/>
        <pt x="604" y="109" on="0"/>
        <pt x="654" y="59" on="0"/>
      </contour>
    </TTGlyph>
    <TTGlyph name="period" xMin="36" yMin="-9" xMax="185" yMax="140">
      <contour>
        <pt x="36" y="65" on="1"/>
        <pt x="36" y="98" on="0"/>
        <pt x="78" y="140" on="0"/>
        <pt x="110" y="140" on="1"/>
        <pt x="143" y="140" on="0"/>
        <pt x="185" y="98" on="0"/>
        <pt x="185" y="65" on="1"/>
        <pt x="185" y="33" on="0"/>
        <pt x="143" y="-9" on="0"/>
        <pt x="110" y="-9" on="1"/>
        <pt x="77" y="-9" on="0"/>
        <pt x="36" y="33" on="0"/>
      </contour>
    </TTGlyph>
    <TTGlyph name="periodcentered" xMin="52" yMin="221" xMax="169" yMax="338">
      <contour>
        <pt x="64" y="251" on="1"/>
        <pt x="52" y="271" on="0"/>
        <pt x="62" y="313" on="0"/>
        <pt x="81" y="325" on="1"/>
        <pt x="102" y="338" on="0"/>
        <pt x="144" y="328" on="0"/>
        <pt x="156" y="309" on="1"/>
        <pt x="169" y="289" on="0"/>
        <pt x="159" y="246" on="0"/>
        <pt x="139" y="233" on="1"/>
        <pt x="119" y="221" on="0"/>
        <pt x="77" y="232" on="0"/>
      </contour>
    </TTGlyph>
    <TTGlyph name="plus" xMin="49" yMin="204" xMax="430" yMax="425">
      <contour>
        <pt x="49" y="204" on="1"/>
        <pt x="49" y="298" on="1"/>
        <pt x="190" y="298" on="1"/>
        <pt x="190" y="425" on="1"/>
        <pt x="289" y="425" on="1"/>
        <pt x="289" y="298" on="1"/>
        <pt x="430" y="298" on="1"/>
        <pt x="430" y="204" on="1"/>
      </contour>
    </TTGlyph>
    <TTGlyph name="question" xMin="51" yMin="-9" xMax="461" yMax="622">
      <contour>
        <pt x="190" y="194" on="1"/>
        <pt x="190" y="203" on="1"/>
        <pt x="190" y="254" on="0"/>
        <pt x="223" y="316" on="0"/>
        <pt x="272" y="355" on="0"/>
        <pt x="321" y="384" on="0"/>
        <pt x="354" y="416" on="0"/>
        <pt x="354" y="442" on="1"/>
        <pt x="354" y="465" on="0"/>
        <pt x="323" y="503" on="0"/>
        <pt x="274" y="527" on="0"/>
        <pt x="248" y="527" on="1"/>
        <pt x="201" y="527" on="0"/>
        <pt x="133" y="483" on="0"/>
        <pt x="103" y="447" on="1"/>
        <pt x="51" y="516" on="1"/>
        <pt x="82" y="561" on="0"/>
        <pt x="183" y="622" on="0"/>
        <pt x="254" y="622" on="1"/>
        <pt x="306" y="622" on="0"/>
        <pt x="401" y="577" on="0"/>
        <pt x="461" y="497" on="0"/>
        <pt x="461" y="445" on="1"/>
        <pt x="461" y="402" on="0"/>
        <pt x="426" y="350" on="0"/>
        <pt x="376" y="317" on="0"/>
        <pt x="325" y="285" on="0"/>
        <pt x="291" y="241" on="0"/>
        <pt x="291" y="203" on="1"/>
        <pt x="291" y="194" on="1"/>
      </contour>
      <contour>
        <pt x="241" y="-9" on="1"/>
        <pt x="208" y="-9" on="0"/>
        <pt x="167" y="33" on="0"/>
        <pt x="167" y="65" on="1"/>
        <pt x="167" y="98" on="0"/>
        <pt x="209" y="140" on="0"/>
        <pt x="241" y="140" on="1"/>
        <pt x="274" y="140" on="0"/>
        <pt x="316" y="98" on="0"/>
        <pt x="316" y="65" on="1"/>
        <pt x="316" y="33" on="0"/>
        <pt x="274" y="-9" on="0"/>
      </contour>
    </TTGlyph>
    <TTGlyph name="quotedbl" xMin="24" yMin="349" xMax="382" yMax="607">
      <contour>
        <pt x="199" y="349" on="1"/>
        <pt x="265" y="607" on="1"/>
        <pt x="382" y="607" on="1"/>
        <pt x="294" y="349" on="1"/>
      </contour>
      <contour>
        <pt x="24" y="349" on="1"/>
        <pt x="90" y="607" on="1"/>
        <pt x="207" y="607" on="1"/>
        <pt x="119" y="349" on="1"/>
      </contour>
    </TTGlyph>
    <TTGlyph name="quotesingle" xMin="22" yMin="349" xMax="205" yMax="607">
      <contour>
        <pt x="22" y="349" on="1"/>
        <pt x="87" y="607" on="1"/>
        <pt x="205" y="607" on="1"/>
        <pt x="117" y="349" on="1"/>
      </contour>
    </TTGlyph>
    <TTGlyph name="registered" xMin="41" yMin="183" xMax="478" yMax="619">
      <contour>
        <pt x="259" y="183" on="1"/>
        <pt x="199" y="183" on="0"/>
        <pt x="100" y="242" on="0"/>
        <pt x="41" y="341" on="0"/>
        <pt x="41" y="401" on="1"/>
        <pt x="41" y="461" on="0"/>
        <pt x="100" y="560" on="0"/>
        <pt x="199" y="619" on="0"/>
        <pt x="259" y="619" on="1"/>
        <pt x="320" y="619" on="0"/>
        <pt x="419" y="560" on="0"/>
        <pt x="478" y="461" on="0"/>
        <pt x="478" y="401" on="1"/>
        <pt x="478" y="341" on="0"/>
        <pt x="419" y="242" on="0"/>
        <pt x="320" y="183" on="0"/>
      </contour>
      <contour>
        <pt x="259" y="229" on="1"/>
        <pt x="307" y="229" on="0"/>
        <pt x="384" y="275" on="0"/>
        <pt x="428" y="354" on="0"/>
        <pt x="428" y="401" on="1"/>
        <pt x="428" y="448" on="0"/>
        <pt x="384" y="527" on="0"/>
        <pt x="307" y="574" on="0"/>
        <pt x="259" y="574" on="1"/>
        <pt x="211" y="574" on="0"/>
        <pt x="135" y="527" on="0"/>
        <pt x="90" y="449" on="0"/>
        <pt x="90" y="401" on="1"/>
        <pt x="90" y="354" on="0"/>
        <pt x="135" y="275" on="0"/>
        <pt x="211" y="229" on="0"/>
      </contour>
      <contour>
        <pt x="179" y="296" on="1"/>
        <pt x="179" y="515" on="1"/>
        <pt x="263" y="515" on="1"/>
        <pt x="304" y="515" on="0"/>
        <pt x="354" y="470" on="0"/>
        <pt x="354" y="438" on="1"/>
        <pt x="354" y="414" on="0"/>
        <pt x="331" y="376" on="0"/>
        <pt x="308" y="367" on="1"/>
        <pt x="352" y="295" on="1"/>
        <pt x="296" y="296" on="1"/>
        <pt x="258" y="361" on="1"/>
        <pt x="229" y="361" on="1"/>
        <pt x="229" y="296" on="1"/>
      </contour>
      <contour>
        <pt x="229" y="401" on="1"/>
        <pt x="259" y="401" on="1"/>
        <pt x="279" y="401" on="0"/>
        <pt x="302" y="420" on="0"/>
        <pt x="302" y="436" on="1"/>
        <pt x="302" y="454" on="0"/>
        <pt x="278" y="469" on="0"/>
        <pt x="259" y="469" on="1"/>
        <pt x="229" y="469" on="1"/>
      </contour>
    </TTGlyph>
    <TTGlyph name="semicolon" xMin="23" yMin="-116" xMax="185" yMax="467">
      <contour>
        <pt x="110" y="318" on="1"/>
        <pt x="77" y="318" on="0"/>
        <pt x="36" y="360" on="0"/>
        <pt x="36" y="392" on="1"/>
        <pt x="36" y="425" on="0"/>
        <pt x="78" y="467" on="0"/>
        <pt x="110" y="467" on="1"/>
        <pt x="143" y="467" on="0"/>
        <pt x="185" y="425" on="0"/>
        <pt x="185" y="392" on="1"/>
        <pt x="185" y="360" on="0"/>
        <pt x="143" y="318" on="0"/>
      </contour>
      <contour>
        <pt x="23" y="-116" on="1"/>
        <pt x="64" y="118" on="1"/>
        <pt x="182" y="118" on="1"/>
        <pt x="113" y="-116" on="1"/>
      </contour>
    </TTGlyph>
    <TTGlyph name="seven" xMin="54" yMin="0" xMax="500" yMax="601">
      <contour>
        <pt x="258" y="0" on="1"/>
        <pt x="143" y="0" on="1"/>
        <pt x="345" y="492" on="1"/>
        <pt x="54" y="492" on="1"/>
        <pt x="54" y="601" on="1"/>
        <pt x="500" y="601" on="1"/>
      </contour>
    </TTGlyph>
    <TTGlyph name="six" xMin="39" yMin="-17" xMax="492" yMax="634">
      <contour>
        <pt x="39" y="210" on="1"/>
        <pt x="39" y="296" on="0"/>
        <pt x="106" y="441" on="0"/>
        <pt x="221" y="572" on="0"/>
        <pt x="294" y="634" on="1"/>
        <pt x="359" y="550" on="1"/>
        <pt x="331" y="527" on="0"/>
        <pt x="248" y="451" on="0"/>
        <pt x="210" y="401" on="1"/>
        <pt x="242" y="408" on="0"/>
        <pt x="274" y="408" on="1"/>
        <pt x="339" y="408" on="0"/>
        <pt x="437" y="354" on="0"/>
        <pt x="492" y="262" on="0"/>
        <pt x="492" y="203" on="1"/>
        <pt x="492" y="137" on="0"/>
        <pt x="434" y="38" on="0"/>
        <pt x="334" y="-17" on="0"/>
        <pt x="270" y="-17" on="1"/>
        <pt x="207" y="-17" on="0"/>
        <pt x="101" y="40" on="0"/>
        <pt x="39" y="143" on="0"/>
      </contour>
      <contour>
        <pt x="272" y="92" on="1"/>
        <pt x="323" y="92" on="0"/>
        <pt x="388" y="153" on="0"/>
        <pt x="388" y="198" on="1"/>
        <pt x="388" y="248" on="0"/>
        <pt x="320" y="299" on="0"/>
        <pt x="266" y="299" on="1"/>
        <pt x="213" y="299" on="0"/>
        <pt x="144" y="254" on="0"/>
        <pt x="144" y="205" on="1"/>
        <pt x="144" y="154" on="0"/>
        <pt x="219" y="92" on="0"/>
      </contour>
    </TTGlyph>
    <TTGlyph name="slash" xMin="6" yMin="-185" xMax="390" yMax="730">
      <contour>
        <pt x="6" y="-185" on="1"/>
        <pt x="279" y="730" on="1"/>
        <pt x="390" y="730" on="1"/>
        <pt x="117" y="-185" on="1"/>
      </contour>
    </TTGlyph>
    <TTGlyph name="three" xMin="37" yMin="-18" xMax="488" yMax="601">
      <contour>
        <pt x="253" y="-18" on="1"/>
        <pt x="190" y="-18" on="0"/>
        <pt x="79" y="13" on="0"/>
        <pt x="37" y="32" on="1"/>
        <pt x="82" y="131" on="1"/>
        <pt x="115" y="116" on="0"/>
        <pt x="201" y="91" on="0"/>
        <pt x="253" y="91" on="1"/>
        <pt x="312" y="91" on="0"/>
        <pt x="384" y="149" on="0"/>
        <pt x="384" y="194" on="1"/>
        <pt x="384" y="250" on="0"/>
        <pt x="256" y="296" on="0"/>
        <pt x="138" y="304" on="1"/>
        <pt x="310" y="492" on="1"/>
        <pt x="62" y="492" on="1"/>
        <pt x="62" y="601" on="1"/>
        <pt x="468" y="601" on="1"/>
        <pt x="467" y="506" on="1"/>
        <pt x="328" y="373" on="1"/>
        <pt x="407" y="352" on="0"/>
        <pt x="488" y="260" on="0"/>
        <pt x="488" y="186" on="1"/>
        <pt x="488" y="128" on="0"/>
        <pt x="430" y="36" on="0"/>
        <pt x="324" y="-18" on="0"/>
      </contour>
    </TTGlyph>
    <TTGlyph name="trademark" xMin="37" yMin="271" xMax="638" yMax="569">
      <contour>
        <pt x="302" y="271" on="1"/>
        <pt x="302" y="569" on="1"/>
        <pt x="367" y="569" on="1"/>
        <pt x="470" y="432" on="1"/>
        <pt x="577" y="569" on="1"/>
        <pt x="638" y="569" on="1"/>
        <pt x="638" y="271" on="1"/>
        <pt x="568" y="271" on="1"/>
        <pt x="568" y="447" on="1"/>
        <pt x="470" y="329" on="1"/>
        <pt x="372" y="447" on="1"/>
        <pt x="372" y="271" on="1"/>
      </contour>
      <contour>
        <pt x="121" y="271" on="1"/>
        <pt x="121" y="499" on="1"/>
        <pt x="37" y="499" on="1"/>
        <pt x="37" y="569" on="1"/>
        <pt x="275" y="569" on="1"/>
        <pt x="275" y="499" on="1"/>
        <pt x="191" y="499" on="1"/>
        <pt x="191" y="271" on="1"/>
      </contour>
    </TTGlyph>
    <TTGlyph name="two" xMin="35" yMin="0" xMax="491" yMax="621">
      <contour>
        <pt x="66" y="0" on="1"/>
        <pt x="69" y="118" on="1"/>
        <pt x="162" y="175" on="0"/>
        <pt x="298" y="268" on="0"/>
        <pt x="372" y="355" on="0"/>
        <pt x="372" y="403" on="1"/>
        <pt x="372" y="449" on="0"/>
        <pt x="314" y="511" on="0"/>
        <pt x="263" y="511" on="1"/>
        <pt x="223" y="511" on="0"/>
        <pt x="138" y="467" on="0"/>
        <pt x="101" y="431" on="1"/>
        <pt x="35" y="508" on="1"/>
        <pt x="64" y="535" on="0"/>
        <pt x="131" y="587" on="0"/>
        <pt x="217" y="621" on="0"/>
        <pt x="276" y="620" on="1"/>
        <pt x="341" y="621" on="0"/>
        <pt x="433" y="566" on="0"/>
        <pt x="481" y="474" on="0"/>
        <pt x="481" y="419" on="1"/>
        <pt x="481" y="353" on="0"/>
        <pt x="413" y="249" on="0"/>
        <pt x="302" y="157" on="0"/>
        <pt x="238" y="109" on="1"/>
        <pt x="491" y="109" on="1"/>
        <pt x="491" y="0" on="1"/>
      </contour>
    </TTGlyph>
    <TTGlyph name="underscore" xMin="44" yMin="-18" xMax="489" yMax="76">
      <contour>
        <pt x="44" y="76" on="1"/>
        <pt x="489" y="76" on="1"/>
        <pt x="489" y="-18" on="1"/>
        <pt x="44" y="-18" on="1"/>
      </contour>
    </TTGlyph>
    <TTGlyph name="uni05B0" xMin="-46" yMin="-300" xMax="45" yMax="-88">
      <contour>
        <pt x="0" y="-180" on="1"/>
        <pt x="-20" y="-180" on="0"/>
        <pt x="-46" y="-153" on="0"/>
        <pt x="-46" y="-134" on="1"/>
        <pt x="-46" y="-115" on="0"/>
        <pt x="-20" y="-88" on="0"/>
        <pt x="0" y="-88" on="1"/>
        <pt x="19" y="-88" on="0"/>
        <pt x="45" y="-115" on="0"/>
        <pt x="45" y="-134" on="1"/>
        <pt x="45" y="-153" on="0"/>
        <pt x="19" y="-180" on="0"/>
      </contour>
      <contour>
        <pt x="0" y="-300" on="1"/>
        <pt x="-20" y="-300" on="0"/>
        <pt x="-46" y="-273" on="0"/>
        <pt x="-46" y="-254" on="1"/>
        <pt x="-46" y="-235" on="0"/>
        <pt x="-20" y="-208" on="0"/>
        <pt x="0" y="-208" on="1"/>
        <pt x="19" y="-208" on="0"/>
        <pt x="45" y="-235" on="0"/>
        <pt x="45" y="-254" on="1"/>
        <pt x="45" y="-273" on="0"/>
        <pt x="19" y="-300" on="0"/>
      </contour>
    </TTGlyph>
    <TTGlyph name="uni05B1" xMin="-170" yMin="-300" xMax="170" yMax="-88">
      <contour>
        <pt x="124" y="-180" on="1"/>
        <pt x="105" y="-180" on="0"/>
        <pt x="78" y="-153" on="0"/>
        <pt x="78" y="-134" on="1"/>
        <pt x="78" y="-115" on="0"/>
        <pt x="105" y="-88" on="0"/>
        <pt x="124" y="-88" on="1"/>
        <pt x="143" y="-88" on="0"/>
        <pt x="170" y="-115" on="0"/>
        <pt x="170" y="-134" on="1"/>
        <pt x="170" y="-153" on="0"/>
        <pt x="143" y="-180" on="0"/>
      </contour>
      <contour>
        <pt x="-124" y="-180" on="1"/>
        <pt x="-144" y="-180" on="0"/>
        <pt x="-170" y="-153" on="0"/>
        <pt x="-170" y="-134" on="1"/>
        <pt x="-170" y="-115" on="0"/>
        <pt x="-144" y="-88" on="0"/>
        <pt x="-124" y="-88" on="1"/>
        <pt x="-105" y="-88" on="0"/>
        <pt x="-79" y="-115" on="0"/>
        <pt x="-79" y="-134" on="1"/>
        <pt x="-79" y="-153" on="0"/>
        <pt x="-105" y="-180" on="0"/>
      </contour>
      <contour>
        <pt x="0" y="-180" on="1"/>
        <pt x="-20" y="-180" on="0"/>
        <pt x="-46" y="-153" on="0"/>
        <pt x="-46" y="-134" on="1"/>
        <pt x="-46" y="-115" on="0"/>
        <pt x="-20" y="-88" on="0"/>
        <pt x="0" y="-88" on="1"/>
        <pt x="19" y="-88" on="0"/>
        <pt x="45" y="-115" on="0"/>
        <pt x="45" y="-134" on="1"/>
        <pt x="45" y="-153" on="0"/>
        <pt x="19" y="-180" on="0"/>
      </contour>
      <contour>
        <pt x="124" y="-300" on="1"/>
        <pt x="105" y="-300" on="0"/>
        <pt x="78" y="-273" on="0"/>
        <pt x="78" y="-254" on="1"/>
        <pt x="78" y="-235" on="0"/>
        <pt x="105" y="-208" on="0"/>
        <pt x="124" y="-208" on="1"/>
        <pt x="143" y="-208" on="0"/>
        <pt x="170" y="-235" on="0"/>
        <pt x="170" y="-254" on="1"/>
        <pt x="170" y="-273" on="0"/>
        <pt x="143" y="-300" on="0"/>
      </contour>
      <contour>
        <pt x="-62" y="-300" on="1"/>
        <pt x="-82" y="-300" on="0"/>
        <pt x="-108" y="-273" on="0"/>
        <pt x="-108" y="-254" on="1"/>
        <pt x="-108" y="-235" on="0"/>
        <pt x="-82" y="-208" on="0"/>
        <pt x="-62" y="-208" on="1"/>
        <pt x="-43" y="-208" on="0"/>
        <pt x="-17" y="-235" on="0"/>
        <pt x="-17" y="-254" on="1"/>
        <pt x="-17" y="-273" on="0"/>
        <pt x="-43" y="-300" on="0"/>
      </contour>
    </TTGlyph>
    <TTGlyph name="uni05B2" xMin="-170" yMin="-300" xMax="156" yMax="-88">
      <contour>
        <pt x="111" y="-180" on="1"/>
        <pt x="91" y="-180" on="0"/>
        <pt x="64" y="-153" on="0"/>
        <pt x="64" y="-134" on="1"/>
        <pt x="64" y="-115" on="0"/>
        <pt x="91" y="-88" on="0"/>
        <pt x="111" y="-88" on="1"/>
        <pt x="130" y="-88" on="0"/>
        <pt x="156" y="-115" on="0"/>
        <pt x="156" y="-134" on="1"/>
        <pt x="156" y="-153" on="0"/>
        <pt x="130" y="-180" on="0"/>
      </contour>
      <contour>
        <pt x="-170" y="-162" on="1"/>
        <pt x="-170" y="-96" on="1"/>
        <pt x="23" y="-96" on="1"/>
        <pt x="23" y="-162" on="1"/>
      </contour>
      <contour>
        <pt x="111" y="-300" on="1"/>
        <pt x="91" y="-300" on="0"/>
        <pt x="64" y="-273" on="0"/>
        <pt x="64" y="-254" on="1"/>
        <pt x="64" y="-235" on="0"/>
        <pt x="91" y="-208" on="0"/>
        <pt x="111" y="-208" on="1"/>
        <pt x="130" y="-208" on="0"/>
        <pt x="156" y="-235" on="0"/>
        <pt x="156" y="-254" on="1"/>
        <pt x="156" y="-273" on="0"/>
        <pt x="130" y="-300" on="0"/>
      </contour>
    </TTGlyph>
    <TTGlyph name="uni05B3" xMin="-170" yMin="-302" xMax="156" yMax="-88">
      <contour>
        <pt x="111" y="-180" on="1"/>
        <pt x="91" y="-180" on="0"/>
        <pt x="64" y="-153" on="0"/>
        <pt x="64" y="-134" on="1"/>
        <pt x="64" y="-115" on="0"/>
        <pt x="91" y="-88" on="0"/>
        <pt x="111" y="-88" on="1"/>
        <pt x="130" y="-88" on="0"/>
        <pt x="156" y="-115" on="0"/>
        <pt x="156" y="-134" on="1"/>
        <pt x="156" y="-153" on="0"/>
        <pt x="130" y="-180" on="0"/>
      </contour>
      <contour>
        <pt x="-108" y="-302" on="1"/>
        <pt x="-103" y="-162" on="1"/>
        <pt x="-170" y="-162" on="1"/>
        <pt x="-170" y="-96" on="1"/>
        <pt x="23" y="-96" on="1"/>
        <pt x="23" y="-162" on="1"/>
        <pt x="-44" y="-162" on="1"/>
        <pt x="-39" y="-302" on="1"/>
      </contour>
      <contour>
        <pt x="111" y="-300" on="1"/>
        <pt x="91" y="-300" on="0"/>
        <pt x="64" y="-273" on="0"/>
        <pt x="64" y="-254" on="1"/>
        <pt x="64" y="-235" on="0"/>
        <pt x="91" y="-208" on="0"/>
        <pt x="111" y="-208" on="1"/>
        <pt x="130" y="-208" on="0"/>
        <pt x="156" y="-235" on="0"/>
        <pt x="156" y="-254" on="1"/>
        <pt x="156" y="-273" on="0"/>
        <pt x="130" y="-300" on="0"/>
      </contour>
    </TTGlyph>
    <TTGlyph name="uni05B4" xMin="-46" yMin="-180" xMax="45" yMax="-88">
      <contour>
        <pt x="0" y="-180" on="1"/>
        <pt x="-20" y="-180" on="0"/>
        <pt x="-46" y="-153" on="0"/>
        <pt x="-46" y="-134" on="1"/>
        <pt x="-46" y="-115" on="0"/>
        <pt x="-20" y="-88" on="0"/>
        <pt x="0" y="-88" on="1"/>
        <pt x="19" y="-88" on="0"/>
        <pt x="45" y="-115" on="0"/>
        <pt x="45" y="-134" on="1"/>
        <pt x="45" y="-153" on="0"/>
        <pt x="19" y="-180" on="0"/>
      </contour>
    </TTGlyph>
    <TTGlyph name="uni05B5" xMin="-123" yMin="-180" xMax="122" yMax="-88">
      <contour>
        <pt x="-77" y="-180" on="1"/>
        <pt x="-97" y="-180" on="0"/>
        <pt x="-123" y="-153" on="0"/>
        <pt x="-123" y="-134" on="1"/>
        <pt x="-123" y="-115" on="0"/>
        <pt x="-97" y="-88" on="0"/>
        <pt x="-77" y="-88" on="1"/>
        <pt x="-58" y="-88" on="0"/>
        <pt x="-32" y="-115" on="0"/>
        <pt x="-32" y="-134" on="1"/>
        <pt x="-32" y="-153" on="0"/>
        <pt x="-58" y="-180" on="0"/>
      </contour>
      <contour>
        <pt x="77" y="-180" on="1"/>
        <pt x="57" y="-180" on="0"/>
        <pt x="31" y="-153" on="0"/>
        <pt x="31" y="-134" on="1"/>
        <pt x="31" y="-115" on="0"/>
        <pt x="57" y="-88" on="0"/>
        <pt x="77" y="-88" on="1"/>
        <pt x="96" y="-88" on="0"/>
        <pt x="122" y="-115" on="0"/>
        <pt x="122" y="-134" on="1"/>
        <pt x="122" y="-153" on="0"/>
        <pt x="96" y="-180" on="0"/>
      </contour>
    </TTGlyph>
    <TTGlyph name="uni05B6" xMin="-123" yMin="-300" xMax="122" yMax="-88">
      <contour>
        <pt x="-77" y="-180" on="1"/>
        <pt x="-97" y="-180" on="0"/>
        <pt x="-123" y="-153" on="0"/>
        <pt x="-123" y="-134" on="1"/>
        <pt x="-123" y="-115" on="0"/>
        <pt x="-97" y="-88" on="0"/>
        <pt x="-77" y="-88" on="1"/>
        <pt x="-58" y="-88" on="0"/>
        <pt x="-32" y="-115" on="0"/>
        <pt x="-32" y="-134" on="1"/>
        <pt x="-32" y="-153" on="0"/>
        <pt x="-58" y="-180" on="0"/>
      </contour>
      <contour>
        <pt x="77" y="-180" on="1"/>
        <pt x="57" y="-180" on="0"/>
        <pt x="31" y="-153" on="0"/>
        <pt x="31" y="-134" on="1"/>
        <pt x="31" y="-115" on="0"/>
        <pt x="57" y="-88" on="0"/>
        <pt x="77" y="-88" on="1"/>
        <pt x="96" y="-88" on="0"/>
        <pt x="122" y="-115" on="0"/>
        <pt x="122" y="-134" on="1"/>
        <pt x="122" y="-153" on="0"/>
        <pt x="96" y="-180" on="0"/>
      </contour>
      <contour>
        <pt x="0" y="-300" on="1"/>
        <pt x="-20" y="-300" on="0"/>
        <pt x="-46" y="-273" on="0"/>
        <pt x="-46" y="-254" on="1"/>
        <pt x="-46" y="-235" on="0"/>
        <pt x="-20" y="-208" on="0"/>
        <pt x="0" y="-208" on="1"/>
        <pt x="19" y="-208" on="0"/>
        <pt x="45" y="-235" on="0"/>
        <pt x="45" y="-254" on="1"/>
        <pt x="45" y="-273" on="0"/>
        <pt x="19" y="-300" on="0"/>
      </contour>
    </TTGlyph>
    <TTGlyph name="uni05B7" xMin="-129" yMin="-162" xMax="131" yMax="-96">
      <contour>
        <pt x="-129" y="-162" on="1"/>
        <pt x="-129" y="-96" on="1"/>
        <pt x="131" y="-96" on="1"/>
        <pt x="131" y="-162" on="1"/>
      </contour>
    </TTGlyph>
    <TTGlyph name="uni05B8" xMin="-129" yMin="-261" xMax="131" yMax="-96">
      <contour>
        <pt x="-129" y="-162" on="1"/>
        <pt x="-129" y="-96" on="1"/>
        <pt x="131" y="-96" on="1"/>
        <pt x="131" y="-162" on="1"/>
        <pt x="31" y="-162" on="1"/>
        <pt x="35" y="-261" on="1"/>
        <pt x="-33" y="-261" on="1"/>
        <pt x="-29" y="-162" on="1"/>
      </contour>
    </TTGlyph>
    <TTGlyph name="uni05B8.narrow" xMin="-89" yMin="-261" xMax="91" yMax="-96">
      <contour>
        <pt x="-89" y="-162" on="1"/>
        <pt x="-89" y="-96" on="1"/>
        <pt x="91" y="-96" on="1"/>
        <pt x="91" y="-162" on="1"/>
        <pt x="31" y="-162" on="1"/>
        <pt x="35" y="-261" on="1"/>
        <pt x="-33" y="-261" on="1"/>
        <pt x="-29" y="-162" on="1"/>
      </contour>
    </TTGlyph>
    <TTGlyph name="uni05B9" xMin="-83" yMin="624" xMax="8" yMax="716">
      <contour>
        <pt x="-37" y="624" on="1"/>
        <pt x="-57" y="624" on="0"/>
        <pt x="-83" y="651" on="0"/>
        <pt x="-83" y="670" on="1"/>
        <pt x="-83" y="689" on="0"/>
        <pt x="-57" y="716" on="0"/>
        <pt x="-37" y="716" on="1"/>
        <pt x="-18" y="716" on="0"/>
        <pt x="8" y="689" on="0"/>
        <pt x="8" y="670" on="1"/>
        <pt x="8" y="651" on="0"/>
        <pt x="-18" y="624" on="0"/>
      </contour>
    </TTGlyph>
    <TTGlyph name="uni05BA" xMin="-83" yMin="624" xMax="8" yMax="716">
      <contour>
        <pt x="-37" y="624" on="1"/>
        <pt x="-57" y="624" on="0"/>
        <pt x="-83" y="651" on="0"/>
        <pt x="-83" y="670" on="1"/>
        <pt x="-83" y="689" on="0"/>
        <pt x="-57" y="716" on="0"/>
        <pt x="-37" y="716" on="1"/>
        <pt x="-18" y="716" on="0"/>
        <pt x="8" y="689" on="0"/>
        <pt x="8" y="670" on="1"/>
        <pt x="8" y="651" on="0"/>
        <pt x="-18" y="624" on="0"/>
      </contour>
    </TTGlyph>
    <TTGlyph name="uni05BB" xMin="-46" yMin="-376" xMax="184" yMax="-88">
      <contour>
        <pt x="0" y="-180" on="1"/>
        <pt x="-20" y="-180" on="0"/>
        <pt x="-46" y="-153" on="0"/>
        <pt x="-46" y="-134" on="1"/>
        <pt x="-46" y="-115" on="0"/>
        <pt x="-20" y="-88" on="0"/>
        <pt x="0" y="-88" on="1"/>
        <pt x="19" y="-88" on="0"/>
        <pt x="45" y="-115" on="0"/>
        <pt x="45" y="-134" on="1"/>
        <pt x="45" y="-153" on="0"/>
        <pt x="19" y="-180" on="0"/>
      </contour>
      <contour>
        <pt x="70" y="-278" on="1"/>
        <pt x="50" y="-278" on="0"/>
        <pt x="23" y="-251" on="0"/>
        <pt x="23" y="-232" on="1"/>
        <pt x="23" y="-213" on="0"/>
        <pt x="50" y="-186" on="0"/>
        <pt x="70" y="-186" on="1"/>
        <pt x="88" y="-186" on="0"/>
        <pt x="115" y="-213" on="0"/>
        <pt x="115" y="-232" on="1"/>
        <pt x="115" y="-251" on="0"/>
        <pt x="88" y="-278" on="0"/>
      </contour>
      <contour>
        <pt x="139" y="-376" on="1"/>
        <pt x="119" y="-376" on="0"/>
        <pt x="93" y="-349" on="0"/>
        <pt x="93" y="-330" on="1"/>
        <pt x="93" y="-311" on="0"/>
        <pt x="119" y="-284" on="0"/>
        <pt x="139" y="-284" on="1"/>
        <pt x="158" y="-284" on="0"/>
        <pt x="184" y="-311" on="0"/>
        <pt x="184" y="-330" on="1"/>
        <pt x="184" y="-349" on="0"/>
        <pt x="158" y="-376" on="0"/>
      </contour>
    </TTGlyph>
    <TTGlyph name="uni05BC" xMin="-5" yMin="161" xMax="100" yMax="267">
      <contour>
        <pt x="48" y="161" on="1"/>
        <pt x="26" y="161" on="0"/>
        <pt x="-5" y="192" on="0"/>
        <pt x="-5" y="214" on="1"/>
        <pt x="-5" y="236" on="0"/>
        <pt x="26" y="267" on="0"/>
        <pt x="48" y="267" on="1"/>
        <pt x="70" y="267" on="0"/>
        <pt x="100" y="236" on="0"/>
        <pt x="100" y="214" on="1"/>
        <pt x="100" y="192" on="0"/>
        <pt x="70" y="161" on="0"/>
      </contour>
    </TTGlyph>
    <TTGlyph name="uni05BE" xMin="44" yMin="454" xMax="329" yMax="556">
      <contour>
        <pt x="44" y="556" on="1"/>
        <pt x="329" y="556" on="1"/>
        <pt x="329" y="454" on="1"/>
        <pt x="44" y="454" on="1"/>
      </contour>
    </TTGlyph>
    <TTGlyph name="uni05BF" xMin="-129" yMin="638" xMax="131" yMax="704">
      <contour>
        <pt x="-129" y="638" on="1"/>
        <pt x="-129" y="704" on="1"/>
        <pt x="131" y="704" on="1"/>
        <pt x="131" y="638" on="1"/>
      </contour>
    </TTGlyph>
    <TTGlyph name="uni05C1" xMin="-118" yMin="624" xMax="-27" yMax="716">
      <contour>
        <pt x="-72" y="624" on="1"/>
        <pt x="-92" y="624" on="0"/>
        <pt x="-118" y="651" on="0"/>
        <pt x="-118" y="670" on="1"/>
        <pt x="-118" y="689" on="0"/>
        <pt x="-92" y="716" on="0"/>
        <pt x="-72" y="716" on="1"/>
        <pt x="-53" y="716" on="0"/>
        <pt x="-27" y="689" on="0"/>
        <pt x="-27" y="670" on="1"/>
        <pt x="-27" y="651" on="0"/>
        <pt x="-53" y="624" on="0"/>
      </contour>
    </TTGlyph>
    <TTGlyph name="uni05C2" xMin="43" yMin="624" xMax="134" yMax="716">
      <contour>
        <pt x="89" y="624" on="1"/>
        <pt x="69" y="624" on="0"/>
        <pt x="43" y="651" on="0"/>
        <pt x="43" y="670" on="1"/>
        <pt x="43" y="689" on="0"/>
        <pt x="69" y="716" on="0"/>
        <pt x="89" y="716" on="1"/>
        <pt x="108" y="716" on="0"/>
        <pt x="134" y="689" on="0"/>
        <pt x="134" y="670" on="1"/>
        <pt x="134" y="651" on="0"/>
        <pt x="108" y="624" on="0"/>
      </contour>
    </TTGlyph>
    <TTGlyph name="uni05D0" xMin="47" yMin="-15" xMax="593" yMax="576">
      <contour>
        <pt x="63" y="0" on="1"/>
        <pt x="63" y="95" on="0"/>
        <pt x="73" y="237" on="0"/>
        <pt x="114" y="350" on="0"/>
        <pt x="160" y="402" on="1"/>
        <pt x="134" y="426" on="0"/>
        <pt x="78" y="475" on="0"/>
        <pt x="47" y="502" on="1"/>
        <pt x="119" y="576" on="1"/>
        <pt x="182" y="518" on="0"/>
        <pt x="285" y="420" on="0"/>
        <pt x="375" y="325" on="0"/>
        <pt x="421" y="271" on="1"/>
        <pt x="443" y="316" on="0"/>
        <pt x="462" y="399" on="0"/>
        <pt x="465" y="494" on="0"/>
        <pt x="465" y="556" on="1"/>
        <pt x="574" y="556" on="1"/>
        <pt x="574" y="491" on="0"/>
        <pt x="569" y="391" on="0"/>
        <pt x="552" y="309" on="0"/>
        <pt x="517" y="232" on="0"/>
        <pt x="487" y="188" on="1"/>
        <pt x="536" y="126" on="0"/>
        <pt x="593" y="44" on="1"/>
        <pt x="508" y="-15" on="1"/>
        <pt x="452" y="65" on="0"/>
        <pt x="358" y="189" on="0"/>
        <pt x="272" y="290" on="0"/>
        <pt x="226" y="337" on="1"/>
        <pt x="201" y="296" on="0"/>
        <pt x="178" y="200" on="0"/>
        <pt x="172" y="78" on="0"/>
        <pt x="172" y="0" on="1"/>
      </contour>
    </TTGlyph>
    <TTGlyph name="uni05D0.forDagesh" xMin="47" yMin="-15" xMax="593" yMax="576">
      <contour>
        <pt x="63" y="0" on="1"/>
        <pt x="63" y="95" on="0"/>
        <pt x="73" y="237" on="0"/>
        <pt x="114" y="350" on="0"/>
        <pt x="160" y="402" on="1"/>
        <pt x="134" y="426" on="0"/>
        <pt x="78" y="475" on="0"/>
        <pt x="47" y="502" on="1"/>
        <pt x="119" y="576" on="1"/>
        <pt x="182" y="518" on="0"/>
        <pt x="285" y="420" on="0"/>
        <pt x="375" y="325" on="0"/>
        <pt x="421" y="271" on="1"/>
        <pt x="443" y="316" on="0"/>
        <pt x="462" y="399" on="0"/>
        <pt x="465" y="494" on="0"/>
        <pt x="465" y="556" on="1"/>
        <pt x="574" y="556" on="1"/>
        <pt x="574" y="491" on="0"/>
        <pt x="569" y="391" on="0"/>
        <pt x="552" y="309" on="0"/>
        <pt x="517" y="232" on="0"/>
        <pt x="487" y="188" on="1"/>
        <pt x="536" y="126" on="0"/>
        <pt x="593" y="44" on="1"/>
        <pt x="508" y="-15" on="1"/>
        <pt x="452" y="65" on="0"/>
        <pt x="358" y="189" on="0"/>
        <pt x="272" y="290" on="0"/>
        <pt x="226" y="337" on="1"/>
        <pt x="201" y="296" on="0"/>
        <pt x="178" y="200" on="0"/>
        <pt x="172" y="78" on="0"/>
        <pt x="172" y="0" on="1"/>
      </contour>
    </TTGlyph>
    <TTGlyph name="uni05D1" xMin="42" yMin="0" xMax="518" yMax="556">
      <contour>
        <pt x="42" y="0" on="1"/>
        <pt x="42" y="106" on="1"/>
        <pt x="346" y="106" on="1"/>
        <pt x="346" y="297" on="1"/>
        <pt x="346" y="382" on="0"/>
        <pt x="281" y="449" on="0"/>
        <pt x="202" y="449" on="1"/>
        <pt x="42" y="449" on="1"/>
        <pt x="42" y="556" on="1"/>
        <pt x="202" y="556" on="1"/>
        <pt x="332" y="556" on="0"/>
        <pt x="455" y="422" on="0"/>
        <pt x="455" y="297" on="1"/>
        <pt x="455" y="106" on="1"/>
        <pt x="518" y="106" on="1"/>
        <pt x="518" y="0" on="1"/>
      </contour>
    </TTGlyph>
    <TTGlyph name="uni05D2" xMin="36" yMin="-12" xMax="330" yMax="565">
      <contour>
        <pt x="40" y="-12" on="1"/>
        <pt x="36" y="96" on="1"/>
        <pt x="93" y="112" on="0"/>
        <pt x="181" y="173" on="0"/>
        <pt x="208" y="224" on="1"/>
        <pt x="204" y="284" on="1"/>
        <pt x="200" y="356" on="0"/>
        <pt x="169" y="428" on="0"/>
        <pt x="109" y="455" on="0"/>
        <pt x="62" y="462" on="1"/>
        <pt x="73" y="565" on="1"/>
        <pt x="155" y="557" on="0"/>
        <pt x="259" y="502" on="0"/>
        <pt x="310" y="392" on="0"/>
        <pt x="315" y="300" on="1"/>
        <pt x="330" y="2" on="1"/>
        <pt x="221" y="-1" on="1"/>
        <pt x="215" y="109" on="1"/>
        <pt x="187" y="68" on="0"/>
        <pt x="100" y="4" on="0"/>
      </contour>
    </TTGlyph>
    <TTGlyph name="uni05D3" xMin="33" yMin="1" xMax="492" yMax="556">
      <contour>
        <pt x="318" y="1" on="1"/>
        <pt x="318" y="451" on="1"/>
        <pt x="33" y="451" on="1"/>
        <pt x="33" y="556" on="1"/>
        <pt x="492" y="556" on="1"/>
        <pt x="492" y="451" on="1"/>
        <pt x="427" y="451" on="1"/>
        <pt x="427" y="1" on="1"/>
      </contour>
    </TTGlyph>
    <TTGlyph name="uni05D4" xMin="57" yMin="0" xMax="555" yMax="556">
      <contour>
        <pt x="446" y="0" on="1"/>
        <pt x="446" y="294" on="1"/>
        <pt x="446" y="379" on="0"/>
        <pt x="381" y="451" on="0"/>
        <pt x="302" y="451" on="1"/>
        <pt x="57" y="451" on="1"/>
        <pt x="57" y="556" on="1"/>
        <pt x="302" y="556" on="1"/>
        <pt x="433" y="556" on="0"/>
        <pt x="555" y="419" on="0"/>
        <pt x="555" y="294" on="1"/>
        <pt x="555" y="0" on="1"/>
      </contour>
      <contour>
        <pt x="61" y="0" on="1"/>
        <pt x="61" y="331" on="1"/>
        <pt x="170" y="331" on="1"/>
        <pt x="170" y="0" on="1"/>
      </contour>
    </TTGlyph>
    <TTGlyph name="uni05D5" xMin="35" yMin="0" xMax="254" yMax="563">
      <contour>
        <pt x="145" y="0" on="1"/>
        <pt x="145" y="320" on="1"/>
        <pt x="145" y="390" on="0"/>
        <pt x="91" y="448" on="0"/>
        <pt x="35" y="458" on="1"/>
        <pt x="45" y="563" on="1"/>
        <pt x="158" y="553" on="0"/>
        <pt x="254" y="433" on="0"/>
        <pt x="254" y="320" on="1"/>
        <pt x="254" y="0" on="1"/>
      </contour>
    </TTGlyph>
    <TTGlyph name="uni05D6" xMin="40" yMin="-21" xMax="327" yMax="556">
      <contour>
        <pt x="184" y="-21" on="1"/>
        <pt x="149" y="50" on="0"/>
        <pt x="111" y="201" on="0"/>
        <pt x="110" y="280" on="1"/>
        <pt x="109" y="324" on="0"/>
        <pt x="128" y="407" on="0"/>
        <pt x="147" y="452" on="1"/>
        <pt x="40" y="452" on="1"/>
        <pt x="40" y="556" on="1"/>
        <pt x="327" y="556" on="1"/>
        <pt x="327" y="452" on="1"/>
        <pt x="247" y="452" on="1"/>
        <pt x="229" y="410" on="0"/>
        <pt x="219" y="332" on="0"/>
        <pt x="219" y="288" on="1"/>
        <pt x="220" y="218" on="0"/>
        <pt x="254" y="82" on="0"/>
        <pt x="282" y="18" on="1"/>
      </contour>
    </TTGlyph>
    <TTGlyph name="uni05D7" xMin="57" yMin="0" xMax="561" yMax="556">
      <contour>
        <pt x="57" y="0" on="1"/>
        <pt x="57" y="556" on="1"/>
        <pt x="307" y="556" on="1"/>
        <pt x="440" y="556" on="0"/>
        <pt x="561" y="415" on="0"/>
        <pt x="561" y="282" on="1"/>
        <pt x="561" y="0" on="1"/>
        <pt x="452" y="0" on="1"/>
        <pt x="452" y="282" on="1"/>
        <pt x="452" y="375" on="0"/>
        <pt x="387" y="452" on="0"/>
        <pt x="307" y="452" on="1"/>
        <pt x="166" y="452" on="1"/>
        <pt x="166" y="0" on="1"/>
      </contour>
    </TTGlyph>
    <TTGlyph name="uni05D8" xMin="56" yMin="-13" xMax="614" yMax="566">
      <contour>
        <pt x="325" y="-13" on="1"/>
        <pt x="188" y="-13" on="0"/>
        <pt x="56" y="148" on="0"/>
        <pt x="57" y="315" on="1"/>
        <pt x="58" y="556" on="1"/>
        <pt x="167" y="556" on="1"/>
        <pt x="166" y="310" on="1"/>
        <pt x="165" y="204" on="0"/>
        <pt x="246" y="91" on="0"/>
        <pt x="325" y="91" on="1"/>
        <pt x="412" y="91" on="0"/>
        <pt x="505" y="198" on="0"/>
        <pt x="505" y="286" on="1"/>
        <pt x="505" y="380" on="0"/>
        <pt x="437" y="461" on="0"/>
        <pt x="383" y="461" on="1"/>
        <pt x="358" y="461" on="0"/>
        <pt x="314" y="446" on="0"/>
        <pt x="288" y="432" on="1"/>
        <pt x="260" y="528" on="1"/>
        <pt x="291" y="544" on="0"/>
        <pt x="361" y="566" on="0"/>
        <pt x="395" y="566" on="1"/>
        <pt x="504" y="566" on="0"/>
        <pt x="614" y="425" on="0"/>
        <pt x="614" y="292" on="1"/>
        <pt x="614" y="196" on="0"/>
        <pt x="542" y="60" on="0"/>
        <pt x="413" y="-13" on="0"/>
      </contour>
    </TTGlyph>
    <TTGlyph name="uni05D9" xMin="34" yMin="172" xMax="287" yMax="563">
      <contour>
        <pt x="248" y="172" on="1"/>
        <pt x="149" y="200" on="1"/>
        <pt x="164" y="260" on="0"/>
        <pt x="178" y="331" on="0"/>
        <pt x="178" y="357" on="1"/>
        <pt x="178" y="398" on="0"/>
        <pt x="115" y="456" on="0"/>
        <pt x="34" y="460" on="1"/>
        <pt x="46" y="563" on="1"/>
        <pt x="133" y="561" on="0"/>
        <pt x="240" y="507" on="0"/>
        <pt x="287" y="420" on="0"/>
        <pt x="287" y="368" on="1"/>
        <pt x="286" y="331" on="0"/>
        <pt x="266" y="238" on="0"/>
      </contour>
    </TTGlyph>
    <TTGlyph name="uni05DA" xMin="40" yMin="-159" xMax="509" yMax="556">
      <contour>
        <pt x="335" y="-159" on="1"/>
        <pt x="335" y="452" on="1"/>
        <pt x="40" y="452" on="1"/>
        <pt x="40" y="556" on="1"/>
        <pt x="509" y="556" on="1"/>
        <pt x="509" y="452" on="1"/>
        <pt x="444" y="452" on="1"/>
        <pt x="444" y="-159" on="1"/>
      </contour>
    </TTGlyph>
    <TTGlyph name="uni05DB" xMin="42" yMin="0" xMax="467" yMax="556">
      <contour>
        <pt x="45" y="0" on="1"/>
        <pt x="45" y="104" on="1"/>
        <pt x="196" y="104" on="1"/>
        <pt x="283" y="104" on="0"/>
        <pt x="358" y="187" on="0"/>
        <pt x="358" y="277" on="1"/>
        <pt x="358" y="344" on="0"/>
        <pt x="319" y="421" on="0"/>
        <pt x="234" y="452" on="0"/>
        <pt x="164" y="452" on="1"/>
        <pt x="42" y="452" on="1"/>
        <pt x="42" y="556" on="1"/>
        <pt x="164" y="556" on="1"/>
        <pt x="322" y="556" on="0"/>
        <pt x="467" y="427" on="0"/>
        <pt x="467" y="277" on="1"/>
        <pt x="467" y="138" on="0"/>
        <pt x="337" y="0" on="0"/>
        <pt x="196" y="0" on="1"/>
      </contour>
    </TTGlyph>
    <TTGlyph name="uni05DC" xMin="42" yMin="-19" xMax="491" yMax="717">
      <contour>
        <pt x="168" y="-19" on="1"/>
        <pt x="146" y="80" on="1"/>
        <pt x="264" y="115" on="0"/>
        <pt x="382" y="230" on="0"/>
        <pt x="382" y="321" on="1"/>
        <pt x="382" y="392" on="0"/>
        <pt x="295" y="452" on="0"/>
        <pt x="209" y="452" on="1"/>
        <pt x="43" y="452" on="1"/>
        <pt x="42" y="717" on="1"/>
        <pt x="151" y="717" on="1"/>
        <pt x="150" y="556" on="1"/>
        <pt x="266" y="556" on="1"/>
        <pt x="330" y="556" on="0"/>
        <pt x="432" y="502" on="0"/>
        <pt x="491" y="405" on="0"/>
        <pt x="491" y="340" on="1"/>
        <pt x="491" y="201" on="0"/>
        <pt x="330" y="30" on="0"/>
      </contour>
    </TTGlyph>
    <TTGlyph name="uni05DD" xMin="57" yMin="0" xMax="562" yMax="556">
      <contour>
        <pt x="57" y="0" on="1"/>
        <pt x="57" y="556" on="1"/>
        <pt x="320" y="556" on="1"/>
        <pt x="391" y="556" on="0"/>
        <pt x="501" y="496" on="0"/>
        <pt x="562" y="390" on="0"/>
        <pt x="562" y="320" on="1"/>
        <pt x="562" y="0" on="1"/>
      </contour>
      <contour>
        <pt x="166" y="104" on="1"/>
        <pt x="453" y="104" on="1"/>
        <pt x="453" y="320" on="1"/>
        <pt x="453" y="383" on="0"/>
        <pt x="383" y="451" on="0"/>
        <pt x="320" y="452" on="1"/>
        <pt x="166" y="452" on="1"/>
      </contour>
    </TTGlyph>
    <TTGlyph name="uni05DE" xMin="40" yMin="-11" xMax="639" yMax="567">
      <contour>
        <pt x="384" y="-11" on="1"/>
        <pt x="364" y="-11" on="0"/>
        <pt x="315" y="-3" on="0"/>
        <pt x="291" y="4" on="1"/>
        <pt x="310" y="108" on="1"/>
        <pt x="333" y="102" on="0"/>
        <pt x="368" y="94" on="0"/>
        <pt x="386" y="94" on="1"/>
        <pt x="432" y="94" on="0"/>
        <pt x="497" y="141" on="0"/>
        <pt x="530" y="217" on="0"/>
        <pt x="530" y="261" on="1"/>
        <pt x="530" y="317" on="0"/>
        <pt x="498" y="406" on="0"/>
        <pt x="431" y="458" on="0"/>
        <pt x="378" y="458" on="1"/>
        <pt x="330" y="458" on="0"/>
        <pt x="266" y="399" on="0"/>
        <pt x="224" y="297" on="0"/>
        <pt x="198" y="165" on="0"/>
        <pt x="189" y="92" on="1"/>
        <pt x="178" y="0" on="1"/>
        <pt x="70" y="0" on="1"/>
        <pt x="83" y="106" on="1"/>
        <pt x="93" y="188" on="0"/>
        <pt x="126" y="335" on="0"/>
        <pt x="152" y="394" on="1"/>
        <pt x="107" y="434" on="0"/>
        <pt x="40" y="471" on="1"/>
        <pt x="79" y="567" on="1"/>
        <pt x="122" y="543" on="0"/>
        <pt x="178" y="496" on="0"/>
        <pt x="198" y="474" on="1"/>
        <pt x="232" y="517" on="0"/>
        <pt x="323" y="565" on="0"/>
        <pt x="383" y="565" on="1"/>
        <pt x="466" y="565" on="0"/>
        <pt x="581" y="483" on="0"/>
        <pt x="639" y="346" on="0"/>
        <pt x="639" y="261" on="1"/>
        <pt x="639" y="185" on="0"/>
        <pt x="579" y="61" on="0"/>
        <pt x="465" y="-11" on="0"/>
      </contour>
    </TTGlyph>
    <TTGlyph name="uni05DF" xMin="40" yMin="-162" xMax="264" yMax="567">
      <contour>
        <pt x="155" y="-162" on="1"/>
        <pt x="155" y="296" on="1"/>
        <pt x="155" y="354" on="0"/>
        <pt x="131" y="418" on="0"/>
        <pt x="80" y="451" on="0"/>
        <pt x="40" y="461" on="1"/>
        <pt x="74" y="567" on="1"/>
        <pt x="140" y="547" on="0"/>
        <pt x="224" y="484" on="0"/>
        <pt x="264" y="379" on="0"/>
        <pt x="264" y="296" on="1"/>
        <pt x="264" y="-162" on="1"/>
      </contour>
    </TTGlyph>
    <TTGlyph name="uni05E0" xMin="43" yMin="0" xMax="314" yMax="563">
      <contour>
        <pt x="43" y="0" on="1"/>
        <pt x="43" y="104" on="1"/>
        <pt x="205" y="104" on="1"/>
        <pt x="205" y="252" on="1"/>
        <pt x="205" y="319" on="0"/>
        <pt x="181" y="406" on="0"/>
        <pt x="117" y="452" on="0"/>
        <pt x="57" y="459" on="1"/>
        <pt x="75" y="563" on="1"/>
        <pt x="168" y="548" on="0"/>
        <pt x="272" y="473" on="0"/>
        <pt x="314" y="345" on="0"/>
        <pt x="314" y="252" on="1"/>
        <pt x="314" y="0" on="1"/>
      </contour>
    </TTGlyph>
    <TTGlyph name="uni05E1" xMin="49" yMin="-9" xMax="623" yMax="556">
      <contour>
        <pt x="338" y="-9" on="1"/>
        <pt x="276" y="-9" on="0"/>
        <pt x="178" y="39" on="0"/>
        <pt x="108" y="121" on="0"/>
        <pt x="71" y="225" on="0"/>
        <pt x="71" y="282" on="1"/>
        <pt x="71" y="330" on="0"/>
        <pt x="93" y="409" on="0"/>
        <pt x="117" y="452" on="1"/>
        <pt x="49" y="452" on="1"/>
        <pt x="49" y="556" on="1"/>
        <pt x="333" y="556" on="1"/>
        <pt x="437" y="556" on="0"/>
        <pt x="565" y="480" on="0"/>
        <pt x="623" y="353" on="0"/>
        <pt x="623" y="277" on="1"/>
        <pt x="623" y="194" on="0"/>
        <pt x="551" y="65" on="0"/>
        <pt x="423" y="-9" on="0"/>
      </contour>
      <contour>
        <pt x="180" y="285" on="1"/>
        <pt x="180" y="236" on="0"/>
        <pt x="218" y="149" on="0"/>
        <pt x="290" y="95" on="0"/>
        <pt x="340" y="95" on="1"/>
        <pt x="422" y="95" on="0"/>
        <pt x="514" y="199" on="0"/>
        <pt x="514" y="280" on="1"/>
        <pt x="514" y="326" on="0"/>
        <pt x="483" y="404" on="0"/>
        <pt x="405" y="452" on="0"/>
        <pt x="333" y="452" on="1"/>
        <pt x="229" y="452" on="1"/>
        <pt x="201" y="408" on="0"/>
        <pt x="180" y="333" on="0"/>
      </contour>
    </TTGlyph>
    <TTGlyph name="uni05E2" xMin="28" yMin="-75" xMax="521" yMax="569">
      <contour>
        <pt x="69" y="-75" on="1"/>
        <pt x="36" y="27" on="1"/>
        <pt x="84" y="42" on="0"/>
        <pt x="164" y="70" on="0"/>
        <pt x="196" y="84" on="1"/>
        <pt x="159" y="206" on="0"/>
        <pt x="80" y="418" on="0"/>
        <pt x="28" y="533" on="1"/>
        <pt x="127" y="569" on="1"/>
        <pt x="176" y="456" on="0"/>
        <pt x="248" y="245" on="0"/>
        <pt x="280" y="129" on="1"/>
        <pt x="326" y="160" on="0"/>
        <pt x="352" y="199" on="1"/>
        <pt x="378" y="238" on="0"/>
        <pt x="404" y="333" on="0"/>
        <pt x="412" y="464" on="0"/>
        <pt x="411" y="555" on="1"/>
        <pt x="520" y="557" on="1"/>
        <pt x="521" y="459" on="0"/>
        <pt x="510" y="309" on="0"/>
        <pt x="475" y="192" on="0"/>
        <pt x="442" y="141" on="1"/>
        <pt x="392" y="65" on="0"/>
        <pt x="208" y="-31" on="0"/>
      </contour>
    </TTGlyph>
    <TTGlyph name="uni05E3" xMin="40" yMin="-163" xMax="535" yMax="567">
      <contour>
        <pt x="426" y="-163" on="1"/>
        <pt x="426" y="277" on="1"/>
        <pt x="426" y="463" on="0"/>
        <pt x="272" y="463" on="1"/>
        <pt x="216" y="463" on="0"/>
        <pt x="149" y="394" on="0"/>
        <pt x="149" y="333" on="1"/>
        <pt x="149" y="279" on="0"/>
        <pt x="222" y="226" on="0"/>
        <pt x="282" y="224" on="1"/>
        <pt x="269" y="122" on="1"/>
        <pt x="167" y="125" on="0"/>
        <pt x="40" y="232" on="0"/>
        <pt x="40" y="332" on="1"/>
        <pt x="40" y="404" on="0"/>
        <pt x="97" y="509" on="0"/>
        <pt x="199" y="567" on="0"/>
        <pt x="267" y="567" on="1"/>
        <pt x="397" y="567" on="0"/>
        <pt x="535" y="414" on="0"/>
        <pt x="535" y="277" on="1"/>
        <pt x="535" y="-163" on="1"/>
      </contour>
    </TTGlyph>
    <TTGlyph name="uni05E4" xMin="41" yMin="-12" xMax="555" yMax="568">
      <contour>
        <pt x="286" y="-12" on="1"/>
        <pt x="232" y="-12" on="0"/>
        <pt x="117" y="6" on="0"/>
        <pt x="60" y="31" on="1"/>
        <pt x="88" y="131" on="1"/>
        <pt x="143" y="107" on="0"/>
        <pt x="241" y="92" on="0"/>
        <pt x="286" y="92" on="1"/>
        <pt x="335" y="92" on="0"/>
        <pt x="407" y="143" on="0"/>
        <pt x="446" y="230" on="0"/>
        <pt x="446" y="285" on="1"/>
        <pt x="446" y="338" on="0"/>
        <pt x="401" y="419" on="0"/>
        <pt x="324" y="464" on="0"/>
        <pt x="275" y="464" on="1"/>
        <pt x="216" y="464" on="0"/>
        <pt x="143" y="420" on="0"/>
        <pt x="143" y="379" on="1"/>
        <pt x="143" y="341" on="0"/>
        <pt x="200" y="307" on="0"/>
        <pt x="247" y="306" on="1"/>
        <pt x="234" y="215" on="1"/>
        <pt x="179" y="217" on="0"/>
        <pt x="92" y="255" on="0"/>
        <pt x="41" y="330" on="0"/>
        <pt x="41" y="387" on="1"/>
        <pt x="41" y="444" on="0"/>
        <pt x="102" y="525" on="0"/>
        <pt x="210" y="568" on="0"/>
        <pt x="279" y="568" on="1"/>
        <pt x="361" y="568" on="0"/>
        <pt x="485" y="493" on="0"/>
        <pt x="555" y="366" on="0"/>
        <pt x="555" y="287" on="1"/>
        <pt x="555" y="204" on="0"/>
        <pt x="488" y="68" on="0"/>
        <pt x="367" y="-12" on="0"/>
      </contour>
    </TTGlyph>
    <TTGlyph name="uni05E5" xMin="34" yMin="-160" xMax="459" yMax="571">
      <contour>
        <pt x="150" y="-160" on="1"/>
        <pt x="150" y="150" on="1"/>
        <pt x="150" y="205" on="0"/>
        <pt x="136" y="297" on="0"/>
        <pt x="108" y="383" on="0"/>
        <pt x="64" y="474" on="0"/>
        <pt x="34" y="530" on="1"/>
        <pt x="128" y="571" on="1"/>
        <pt x="177" y="485" on="0"/>
        <pt x="237" y="347" on="0"/>
        <pt x="250" y="270" on="1"/>
        <pt x="307" y="318" on="0"/>
        <pt x="347" y="465" on="0"/>
        <pt x="351" y="558" on="1"/>
        <pt x="459" y="548" on="1"/>
        <pt x="454" y="409" on="0"/>
        <pt x="360" y="204" on="0"/>
        <pt x="259" y="155" on="1"/>
        <pt x="259" y="150" on="1"/>
        <pt x="259" y="-160" on="1"/>
      </contour>
    </TTGlyph>
    <TTGlyph name="uni05E6" xMin="25" yMin="0" xMax="515" yMax="570">
      <contour>
        <pt x="71" y="0" on="1"/>
        <pt x="71" y="104" on="1"/>
        <pt x="362" y="104" on="1"/>
        <pt x="349" y="126" on="0"/>
        <pt x="302" y="173" on="0"/>
        <pt x="248" y="222" on="0"/>
        <pt x="225" y="249" on="1"/>
        <pt x="191" y="288" on="0"/>
        <pt x="141" y="350" on="0"/>
        <pt x="99" y="409" on="0"/>
        <pt x="54" y="477" on="0"/>
        <pt x="25" y="522" on="1"/>
        <pt x="116" y="570" on="1"/>
        <pt x="141" y="532" on="0"/>
        <pt x="181" y="471" on="0"/>
        <pt x="222" y="414" on="0"/>
        <pt x="273" y="352" on="0"/>
        <pt x="307" y="313" on="1"/>
        <pt x="308" y="312" on="1"/>
        <pt x="357" y="357" on="0"/>
        <pt x="405" y="471" on="0"/>
        <pt x="417" y="561" on="1"/>
        <pt x="515" y="541" on="1"/>
        <pt x="501" y="438" on="0"/>
        <pt x="434" y="298" on="0"/>
        <pt x="368" y="248" on="1"/>
        <pt x="400" y="215" on="0"/>
        <pt x="457" y="155" on="0"/>
        <pt x="492" y="95" on="0"/>
        <pt x="492" y="63" on="1"/>
        <pt x="492" y="0" on="1"/>
      </contour>
    </TTGlyph>
    <TTGlyph name="uni05E7" xMin="57" yMin="-170" xMax="571" yMax="555">
      <contour>
        <pt x="291" y="-9" on="1"/>
        <pt x="259" y="84" on="1"/>
        <pt x="358" y="118" on="0"/>
        <pt x="462" y="240" on="0"/>
        <pt x="462" y="330" on="1"/>
        <pt x="462" y="394" on="0"/>
        <pt x="386" y="451" on="0"/>
        <pt x="328" y="451" on="1"/>
        <pt x="57" y="451" on="1"/>
        <pt x="57" y="555" on="1"/>
        <pt x="328" y="555" on="1"/>
        <pt x="400" y="555" on="0"/>
        <pt x="509" y="502" on="0"/>
        <pt x="571" y="401" on="0"/>
        <pt x="571" y="330" on="1"/>
        <pt x="571" y="203" on="0"/>
        <pt x="421" y="33" on="0"/>
      </contour>
      <contour>
        <pt x="65" y="-170" on="1"/>
        <pt x="65" y="336" on="1"/>
        <pt x="174" y="336" on="1"/>
        <pt x="174" y="-170" on="1"/>
      </contour>
    </TTGlyph>
    <TTGlyph name="uni05E8" xMin="32" yMin="0" xMax="465" yMax="556">
      <contour>
        <pt x="356" y="0" on="1"/>
        <pt x="356" y="314" on="1"/>
        <pt x="356" y="376" on="0"/>
        <pt x="283" y="446" on="0"/>
        <pt x="215" y="446" on="1"/>
        <pt x="32" y="446" on="1"/>
        <pt x="32" y="556" on="1"/>
        <pt x="220" y="556" on="1"/>
        <pt x="295" y="556" on="0"/>
        <pt x="405" y="498" on="0"/>
        <pt x="465" y="392" on="0"/>
        <pt x="465" y="319" on="1"/>
        <pt x="465" y="0" on="1"/>
      </contour>
    </TTGlyph>
    <TTGlyph name="uni05E9" xMin="44" yMin="-11" xMax="684" yMax="556">
      <contour>
        <pt x="353" y="-11" on="1"/>
        <pt x="273" y="-11" on="0"/>
        <pt x="164" y="55" on="0"/>
        <pt x="95" y="170" on="0"/>
        <pt x="58" y="316" on="0"/>
        <pt x="44" y="477" on="0"/>
        <pt x="44" y="556" on="1"/>
        <pt x="152" y="556" on="1"/>
        <pt x="152" y="483" on="0"/>
        <pt x="162" y="327" on="0"/>
        <pt x="179" y="261" on="1"/>
        <pt x="222" y="271" on="0"/>
        <pt x="278" y="329" on="0"/>
        <pt x="292" y="356" on="1"/>
        <pt x="307" y="389" on="0"/>
        <pt x="318" y="485" on="0"/>
        <pt x="318" y="556" on="1"/>
        <pt x="426" y="556" on="1"/>
        <pt x="426" y="479" on="0"/>
        <pt x="409" y="355" on="0"/>
        <pt x="385" y="309" on="1"/>
        <pt x="362" y="266" on="0"/>
        <pt x="272" y="195" on="0"/>
        <pt x="209" y="182" on="1"/>
        <pt x="231" y="141" on="0"/>
        <pt x="298" y="93" on="0"/>
        <pt x="348" y="93" on="1"/>
        <pt x="423" y="93" on="0"/>
        <pt x="511" y="163" on="0"/>
        <pt x="555" y="289" on="0"/>
        <pt x="572" y="457" on="0"/>
        <pt x="575" y="556" on="1"/>
        <pt x="684" y="556" on="1"/>
        <pt x="681" y="437" on="0"/>
        <pt x="653" y="232" on="0"/>
        <pt x="584" y="78" on="0"/>
        <pt x="456" y="-10" on="0"/>
      </contour>
    </TTGlyph>
    <TTGlyph name="uni05E9.forDagesh" xMin="44" yMin="-11" xMax="684" yMax="556">
      <contour>
        <pt x="353" y="-11" on="1"/>
        <pt x="273" y="-11" on="0"/>
        <pt x="164" y="55" on="0"/>
        <pt x="95" y="170" on="0"/>
        <pt x="58" y="316" on="0"/>
        <pt x="44" y="477" on="0"/>
        <pt x="44" y="556" on="1"/>
        <pt x="152" y="556" on="1"/>
        <pt x="152" y="483" on="0"/>
        <pt x="162" y="327" on="0"/>
        <pt x="179" y="261" on="1"/>
        <pt x="222" y="271" on="0"/>
        <pt x="278" y="329" on="0"/>
        <pt x="292" y="356" on="1"/>
        <pt x="307" y="389" on="0"/>
        <pt x="318" y="485" on="0"/>
        <pt x="318" y="556" on="1"/>
        <pt x="426" y="556" on="1"/>
        <pt x="426" y="405" on="0"/>
        <pt x="383" y="327" on="1"/>
        <pt x="361" y="287" on="0"/>
        <pt x="266" y="216" on="0"/>
        <pt x="198" y="205" on="1"/>
        <pt x="219" y="155" on="0"/>
        <pt x="292" y="93" on="0"/>
        <pt x="348" y="93" on="1"/>
        <pt x="423" y="93" on="0"/>
        <pt x="511" y="163" on="0"/>
        <pt x="555" y="289" on="0"/>
        <pt x="572" y="457" on="0"/>
        <pt x="575" y="556" on="1"/>
        <pt x="684" y="556" on="1"/>
        <pt x="681" y="437" on="0"/>
        <pt x="653" y="232" on="0"/>
        <pt x="584" y="78" on="0"/>
        <pt x="456" y="-10" on="0"/>
      </contour>
    </TTGlyph>
    <TTGlyph name="uni05EA" xMin="48" yMin="0" xMax="597" yMax="556">
      <contour>
        <pt x="48" y="0" on="1"/>
        <pt x="48" y="106" on="1"/>
        <pt x="120" y="106" on="1"/>
        <pt x="114" y="156" on="0"/>
        <pt x="109" y="244" on="0"/>
        <pt x="111" y="286" on="1"/>
        <pt x="113" y="328" on="0"/>
        <pt x="128" y="410" on="0"/>
        <pt x="139" y="452" on="1"/>
        <pt x="64" y="452" on="1"/>
        <pt x="64" y="556" on="1"/>
        <pt x="344" y="556" on="1"/>
        <pt x="478" y="556" on="0"/>
        <pt x="597" y="414" on="0"/>
        <pt x="597" y="281" on="1"/>
        <pt x="597" y="0" on="1"/>
        <pt x="488" y="0" on="1"/>
        <pt x="488" y="281" on="1"/>
        <pt x="488" y="344" on="0"/>
        <pt x="463" y="419" on="0"/>
        <pt x="400" y="452" on="0"/>
        <pt x="344" y="452" on="1"/>
        <pt x="243" y="452" on="1"/>
        <pt x="223" y="361" on="0"/>
        <pt x="220" y="282" on="1"/>
        <pt x="218" y="225" on="0"/>
        <pt x="229" y="96" on="0"/>
        <pt x="243" y="0" on="1"/>
      </contour>
    </TTGlyph>
    <TTGlyph name="uni05F3" xMin="22" yMin="349" xMax="205" yMax="607">
      <contour>
        <pt x="22" y="349" on="1"/>
        <pt x="87" y="607" on="1"/>
        <pt x="205" y="607" on="1"/>
        <pt x="117" y="349" on="1"/>
      </contour>
    </TTGlyph>
    <TTGlyph name="uni05F4" xMin="24" yMin="349" xMax="382" yMax="607">
      <contour>
        <pt x="199" y="349" on="1"/>
        <pt x="265" y="607" on="1"/>
        <pt x="382" y="607" on="1"/>
        <pt x="294" y="349" on="1"/>
      </contour>
      <contour>
        <pt x="24" y="349" on="1"/>
        <pt x="90" y="607" on="1"/>
        <pt x="207" y="607" on="1"/>
        <pt x="119" y="349" on="1"/>
      </contour>
    </TTGlyph>
    <TTGlyph name="uni20AA" xMin="57" yMin="0" xMax="702" yMax="556">
      <contour>
        <pt x="243" y="0" on="1"/>
        <pt x="243" y="342" on="1"/>
        <pt x="337" y="342" on="1"/>
        <pt x="337" y="109" on="1"/>
        <pt x="448" y="109" on="1"/>
        <pt x="533" y="109" on="0"/>
        <pt x="598" y="183" on="0"/>
        <pt x="598" y="271" on="1"/>
        <pt x="598" y="556" on="1"/>
        <pt x="702" y="556" on="1"/>
        <pt x="702" y="265" on="1"/>
        <pt x="702" y="133" on="0"/>
        <pt x="582" y="0" on="0"/>
        <pt x="456" y="0" on="1"/>
      </contour>
      <contour>
        <pt x="57" y="0" on="1"/>
        <pt x="57" y="556" on="1"/>
        <pt x="284" y="556" on="1"/>
        <pt x="406" y="556" on="0"/>
        <pt x="514" y="429" on="0"/>
        <pt x="514" y="306" on="1"/>
        <pt x="514" y="214" on="1"/>
        <pt x="420" y="214" on="1"/>
        <pt x="420" y="293" on="1"/>
        <pt x="420" y="377" on="0"/>
        <pt x="358" y="447" on="0"/>
        <pt x="280" y="447" on="1"/>
        <pt x="161" y="447" on="1"/>
        <pt x="161" y="0" on="1"/>
      </contour>
    </TTGlyph>
    <TTGlyph name="uni2196" xMin="70" yMin="88" xMax="539" yMax="556">
      <contour>
        <pt x="70" y="189" on="1"/>
        <pt x="70" y="556" on="1"/>
        <pt x="439" y="556" on="1"/>
        <pt x="439" y="449" on="1"/>
        <pt x="249" y="452" on="1"/>
        <pt x="539" y="161" on="1"/>
        <pt x="466" y="88" on="1"/>
        <pt x="173" y="381" on="1"/>
        <pt x="177" y="189" on="1"/>
      </contour>
    </TTGlyph>
    <TTGlyph name="uni2197" xMin="59" yMin="87" xMax="528" yMax="556">
      <contour>
        <pt x="132" y="87" on="1"/>
        <pt x="59" y="161" on="1"/>
        <pt x="350" y="452" on="1"/>
        <pt x="160" y="449" on="1"/>
        <pt x="160" y="556" on="1"/>
        <pt x="528" y="556" on="1"/>
        <pt x="528" y="188" on="1"/>
        <pt x="421" y="188" on="1"/>
        <pt x="425" y="380" on="1"/>
      </contour>
    </TTGlyph>
    <TTGlyph name="uni2198" xMin="92" yMin="0" xMax="528" yMax="429">
      <contour>
        <pt x="159" y="51" on="1"/>
        <pt x="226" y="101" on="1"/>
        <pt x="323" y="136" on="1"/>
        <pt x="92" y="429" on="1"/>
        <pt x="227" y="373" on="1"/>
        <pt x="395" y="161" on="1"/>
        <pt x="421" y="170" on="1"/>
        <pt x="472" y="368" on="1"/>
        <pt x="528" y="254" on="1"/>
        <pt x="453" y="87" on="1"/>
        <pt x="477" y="56" on="1"/>
        <pt x="445" y="69" on="1"/>
        <pt x="414" y="0" on="1"/>
      </contour>
    </TTGlyph>
    <TTGlyph name="uni2199" xMin="114" yMin="45" xMax="500" yMax="430">
      <contour>
        <pt x="179" y="51" on="1"/>
        <pt x="179" y="84" on="1"/>
        <pt x="114" y="57" on="1"/>
        <pt x="179" y="139" on="1"/>
        <pt x="179" y="170" on="1"/>
        <pt x="121" y="170" on="1"/>
        <pt x="121" y="255" on="1"/>
        <pt x="179" y="255" on="1"/>
        <pt x="179" y="170" on="1"/>
        <pt x="204" y="170" on="1"/>
        <pt x="364" y="374" on="1"/>
        <pt x="500" y="430" on="1"/>
        <pt x="295" y="170" on="1"/>
        <pt x="369" y="170" on="1"/>
        <pt x="366" y="45" on="1"/>
      </contour>
    </TTGlyph>
    <TTGlyph name="uniFB2A" xMin="44" yMin="-11" xMax="684" yMax="716">
      <component glyphName="uni05E9" x="0" y="0" flags="0x204"/>
      <component glyphName="uni05C1" x="704" y="0" flags="0x4"/>
    </TTGlyph>
    <TTGlyph name="uniFB2B" xMin="44" yMin="-11" xMax="684" yMax="716">
      <component glyphName="uni05E9" x="0" y="0" flags="0x204"/>
      <component glyphName="uni05C2" x="1" y="0" flags="0x4"/>
    </TTGlyph>
    <TTGlyph name="uniFB2C" xMin="44" yMin="-11" xMax="684" yMax="716">
      <component glyphName="uni05E9.forDagesh" x="0" y="0" flags="0x204"/>
      <component glyphName="uni05BC" x="394" y="58" flags="0x4"/>
      <component glyphName="uni05C1" x="704" y="0" flags="0x4"/>
    </TTGlyph>
    <TTGlyph name="uniFB2D" xMin="44" yMin="-11" xMax="684" yMax="716">
      <component glyphName="uni05E9.forDagesh" x="0" y="0" flags="0x204"/>
      <component glyphName="uni05BC" x="394" y="58" flags="0x4"/>
      <component glyphName="uni05C2" x="1" y="0" flags="0x4"/>
    </TTGlyph>
    <TTGlyph name="uniFB2E" xMin="47" yMin="-162" xMax="593" yMax="576">
      <component glyphName="uni05D0" x="0" y="0" flags="0x4"/>
      <component glyphName="uni05B7" x="328" y="0" flags="0x4"/>
    </TTGlyph>
    <TTGlyph name="uniFB2F" xMin="47" yMin="-261" xMax="593" yMax="576">
      <component glyphName="uni05D0" x="0" y="0" flags="0x4"/>
      <component glyphName="uni05B8" x="328" y="0" flags="0x4"/>
    </TTGlyph>
    <TTGlyph name="uniFB30" xMin="47" yMin="-15" xMax="593" yMax="576">
      <component glyphName="uni05D0.forDagesh" x="0" y="0" flags="0x4"/>
      <component glyphName="uni05BC" x="232" y="-121" flags="0x4"/>
    </TTGlyph>
    <TTGlyph name="uniFB31" xMin="42" yMin="0" xMax="518" yMax="556">
      <component glyphName="uni05D1" x="0" y="0" flags="0x204"/>
      <component glyphName="uni05BC" x="137" y="60" flags="0x4"/>
    </TTGlyph>
    <TTGlyph name="uniFB32" xMin="36" yMin="-12" xMax="330" yMax="565">
      <component glyphName="uni05D2" x="0" y="0" flags="0x4"/>
      <component glyphName="uni05BC" x="48" y="68" flags="0x4"/>
    </TTGlyph>
    <TTGlyph name="uniFB33" xMin="33" yMin="1" xMax="492" yMax="556">
      <component glyphName="uni05D3" x="0" y="0" flags="0x204"/>
      <component glyphName="uni05BC" x="123" y="45" flags="0x4"/>
    </TTGlyph>
    <TTGlyph name="uniFB34" xMin="57" yMin="0" xMax="555" yMax="556">
      <component glyphName="uni05D4" x="0" y="0" flags="0x204"/>
      <component glyphName="uni05BC" x="259" y="48" flags="0x4"/>
    </TTGlyph>
    <TTGlyph name="uniFB35" xMin="-1" yMin="0" xMax="254" yMax="563">
      <component glyphName="uni05D5" x="0" y="0" flags="0x204"/>
      <component glyphName="uni05BC" x="3" y="45" flags="0x4"/>
    </TTGlyph>
    <TTGlyph name="uniFB36" xMin="-23" yMin="-21" xMax="327" yMax="556">
      <component glyphName="uni05D6" x="0" y="0" flags="0x204"/>
      <component glyphName="uni05BC" x="-18" y="55" flags="0x4"/>
    </TTGlyph>
    <TTGlyph name="uniFB38" xMin="56" yMin="-13" xMax="614" yMax="566">
      <component glyphName="uni05D8" x="0" y="0" flags="0x4"/>
      <component glyphName="uni05BC" x="284" y="66" flags="0x4"/>
    </TTGlyph>
    <TTGlyph name="uniFB39" xMin="20" yMin="172" xMax="287" yMax="563">
      <component glyphName="uni05D9" x="0" y="0" flags="0x204"/>
      <component glyphName="uni05BC" x="25" y="107" flags="0x4"/>
    </TTGlyph>
    <TTGlyph name="uniFB3A" xMin="40" yMin="-159" xMax="509" yMax="556">
      <component glyphName="uni05DA" x="0" y="0" flags="0x204"/>
      <component glyphName="uni05BC" x="122" y="93" flags="0x4"/>
    </TTGlyph>
    <TTGlyph name="uniFB3B" xMin="42" yMin="0" xMax="467" yMax="556">
      <component glyphName="uni05DB" x="0" y="0" flags="0x204"/>
      <component glyphName="uni05BC" x="128" y="60" flags="0x4"/>
    </TTGlyph>
    <TTGlyph name="uniFB3C" xMin="42" yMin="-19" xMax="491" yMax="717">
      <component glyphName="uni05DC" x="0" y="0" flags="0x204"/>
      <component glyphName="uni05BC" x="149" y="74" flags="0x4"/>
    </TTGlyph>
    <TTGlyph name="uniFB3E" xMin="40" yMin="-11" xMax="639" yMax="567">
      <component glyphName="uni05DE" x="0" y="0" flags="0x204"/>
      <component glyphName="uni05BC" x="329" y="59" flags="0x4"/>
    </TTGlyph>
    <TTGlyph name="uniFB40" xMin="43" yMin="0" xMax="314" yMax="563">
      <component glyphName="uni05E0" x="0" y="0" flags="0x204"/>
      <component glyphName="uni05BC" x="51" y="60" flags="0x4"/>
    </TTGlyph>
    <TTGlyph name="uniFB41" xMin="49" yMin="-9" xMax="623" yMax="556">
      <component glyphName="uni05E1" x="0" y="0" flags="0x204"/>
      <component glyphName="uni05BC" x="296" y="67" flags="0x4"/>
    </TTGlyph>
    <TTGlyph name="uniFB43" xMin="40" yMin="-163" xMax="535" yMax="567">
      <component glyphName="uni05E3" x="0" y="0" flags="0x4"/>
      <component glyphName="uni05BC" x="293" y="6" flags="0x4"/>
    </TTGlyph>
    <TTGlyph name="uniFB44" xMin="41" yMin="-12" xMax="555" yMax="568">
      <component glyphName="uni05E4" x="0" y="0" flags="0x4"/>
      <component glyphName="uni05BC" x="285" y="61" flags="0x4"/>
    </TTGlyph>
    <TTGlyph name="uniFB46" xMin="25" yMin="0" xMax="515" yMax="570">
      <component glyphName="uni05E6" x="0" y="0" flags="0x4"/>
      <component glyphName="uni05BC" x="80" y="-1" flags="0x4"/>
    </TTGlyph>
    <TTGlyph name="uniFB47" xMin="57" yMin="-170" xMax="571" yMax="555">
      <component glyphName="uni05E7" x="0" y="0" flags="0x204"/>
      <component glyphName="uni05BC" x="256" y="66" flags="0x4"/>
    </TTGlyph>
    <TTGlyph name="uniFB48" xMin="32" yMin="0" xMax="465" yMax="556">
      <component glyphName="uni05E8" x="0" y="0" flags="0x204"/>
      <component glyphName="uni05BC" x="141" y="46" flags="0x4"/>
    </TTGlyph>
    <TTGlyph name="uniFB49" xMin="44" yMin="-11" xMax="684" yMax="556">
      <component glyphName="uni05E9.forDagesh" x="0" y="0" flags="0x204"/>
      <component glyphName="uni05BC" x="394" y="58" flags="0x4"/>
    </TTGlyph>
    <TTGlyph name="uniFB4A" xMin="48" yMin="0" xMax="597" yMax="556">
      <component glyphName="uni05EA" x="0" y="0" flags="0x204"/>
      <component glyphName="uni05BC" x="303" y="50" flags="0x4"/>
    </TTGlyph>
    <TTGlyph name="uniFB4B" xMin="35" yMin="0" xMax="254" yMax="716">
      <component glyphName="uni05D5" x="0" y="0" flags="0x204"/>
      <component glyphName="uni05B9" x="167" y="0" flags="0x4"/>
    </TTGlyph>
    <TTGlyph name="zero" xMin="41" yMin="-19" xMax="504" yMax="620">
      <contour>
        <pt x="273" y="-19" on="1"/>
        <pt x="206" y="-19" on="0"/>
        <pt x="101" y="60" on="0"/>
        <pt x="41" y="205" on="0"/>
        <pt x="41" y="303" on="1"/>
        <pt x="41" y="401" on="0"/>
        <pt x="103" y="543" on="0"/>
        <pt x="208" y="620" on="0"/>
        <pt x="273" y="620" on="1"/>
        <pt x="338" y="620" on="0"/>
        <pt x="443" y="542" on="0"/>
        <pt x="504" y="399" on="0"/>
        <pt x="504" y="303" on="1"/>
        <pt x="504" y="203" on="0"/>
        <pt x="443" y="59" on="0"/>
        <pt x="338" y="-19" on="0"/>
      </contour>
      <contour>
        <pt x="273" y="90" on="1"/>
        <pt x="327" y="90" on="0"/>
        <pt x="400" y="198" on="0"/>
        <pt x="400" y="303" on="1"/>
        <pt x="400" y="406" on="0"/>
        <pt x="326" y="511" on="0"/>
        <pt x="273" y="511" on="1"/>
        <pt x="219" y="511" on="0"/>
        <pt x="145" y="404" on="0"/>
        <pt x="145" y="303" on="1"/>
        <pt x="145" y="197" on="0"/>
        <pt x="220" y="90" on="0"/>
      </contour>
    </TTGlyph>
</ttFont>
